%TF.GenerationSoftware,KiCad,Pcbnew,10.0.2*%
%TF.CreationDate,2026-05-20T17:45:16+02:00*%
%TF.ProjectId,BrewPilot,42726577-5069-46c6-9f74-2e6b69636164,rev?*%
%TF.SameCoordinates,Original*%
%TF.FileFunction,Copper,L1,Top*%
%TF.FilePolarity,Positive*%
%FSLAX46Y46*%
G04 Gerber Fmt 4.6, Leading zero omitted, Abs format (unit mm)*
G04 Created by KiCad (PCBNEW 10.0.2) date 2026-05-20 17:45:16*
%MOMM*%
%LPD*%
G01*
G04 APERTURE LIST*
G04 Aperture macros list*
%AMRoundRect*
0 Rectangle with rounded corners*
0 $1 Rounding radius*
0 $2 $3 $4 $5 $6 $7 $8 $9 X,Y pos of 4 corners*
0 Add a 4 corners polygon primitive as box body*
4,1,4,$2,$3,$4,$5,$6,$7,$8,$9,$2,$3,0*
0 Add four circle primitives for the rounded corners*
1,1,$1+$1,$2,$3*
1,1,$1+$1,$4,$5*
1,1,$1+$1,$6,$7*
1,1,$1+$1,$8,$9*
0 Add four rect primitives between the rounded corners*
20,1,$1+$1,$2,$3,$4,$5,0*
20,1,$1+$1,$4,$5,$6,$7,0*
20,1,$1+$1,$6,$7,$8,$9,0*
20,1,$1+$1,$8,$9,$2,$3,0*%
G04 Aperture macros list end*
%TA.AperFunction,ComponentPad*%
%ADD10R,1.800000X1.800000*%
%TD*%
%TA.AperFunction,ComponentPad*%
%ADD11C,1.800000*%
%TD*%
%TA.AperFunction,ComponentPad*%
%ADD12RoundRect,0.250000X-0.750000X-0.750000X0.750000X-0.750000X0.750000X0.750000X-0.750000X0.750000X0*%
%TD*%
%TA.AperFunction,ComponentPad*%
%ADD13C,2.000000*%
%TD*%
%TA.AperFunction,ComponentPad*%
%ADD14C,1.600000*%
%TD*%
%TA.AperFunction,ComponentPad*%
%ADD15R,1.050000X1.500000*%
%TD*%
%TA.AperFunction,ComponentPad*%
%ADD16O,1.050000X1.500000*%
%TD*%
%TA.AperFunction,ComponentPad*%
%ADD17RoundRect,0.250000X0.750000X0.750000X-0.750000X0.750000X-0.750000X-0.750000X0.750000X-0.750000X0*%
%TD*%
%TA.AperFunction,ComponentPad*%
%ADD18C,2.250000*%
%TD*%
%TA.AperFunction,ComponentPad*%
%ADD19C,1.400000*%
%TD*%
%TA.AperFunction,ComponentPad*%
%ADD20C,1.498600*%
%TD*%
%TA.AperFunction,ComponentPad*%
%ADD21R,1.700000X1.700000*%
%TD*%
%TA.AperFunction,ComponentPad*%
%ADD22O,1.700000X1.700000*%
%TD*%
%TA.AperFunction,ViaPad*%
%ADD23C,0.600000*%
%TD*%
%TA.AperFunction,Conductor*%
%ADD24C,0.200000*%
%TD*%
%TA.AperFunction,Conductor*%
%ADD25C,2.000000*%
%TD*%
G04 APERTURE END LIST*
D10*
%TO.P,D2,1*%
%TO.N,Net-(Q2-C)*%
X104880000Y-122500000D03*
D11*
%TO.P,D2,2*%
%TO.N,LED_BOILER_FILL_A*%
X107420000Y-122500000D03*
%TD*%
D12*
%TO.P,J9,1,Pin_1*%
%TO.N,AC_PUMP_NEUTRAL*%
X219690000Y-158000000D03*
D13*
%TO.P,J9,2,Pin_2*%
%TO.N,AC_PUMP_PHASE*%
X223500000Y-158000000D03*
%TD*%
D14*
%TO.P,R9,1*%
%TO.N,IN_FLOWMETER_GROUP_ONE*%
X154500000Y-62000000D03*
%TO.P,R9,2*%
%TO.N,3.3V*%
X162120000Y-62000000D03*
%TD*%
D12*
%TO.P,J7,1,Pin_1*%
%TO.N,AC_PUMP_NEUTRAL*%
X178500000Y-150000000D03*
D13*
%TO.P,J7,2,Pin_2*%
%TO.N,AC_PUMP_POWER_OUT*%
X182310000Y-150000000D03*
%TO.P,J7,3,Pin_3*%
%TO.N,AC_SOLENOID_NEUTRAL*%
X186120000Y-150000000D03*
%TO.P,J7,4,Pin_4*%
%TO.N,AC_SOLENOID_BOILER_FILL*%
X189930000Y-150000000D03*
%TD*%
D15*
%TO.P,Q2,1,C*%
%TO.N,Net-(Q2-C)*%
X202700000Y-87500000D03*
D16*
%TO.P,Q2,2,B*%
%TO.N,Net-(Q2-B)*%
X203970000Y-87500000D03*
%TO.P,Q2,3,E*%
%TO.N,GND*%
X205240000Y-87500000D03*
%TD*%
D17*
%TO.P,J4,1,Pin_1*%
%TO.N,FLEXIBLE_IO_01*%
X113683400Y-41807000D03*
D13*
%TO.P,J4,2,Pin_2*%
%TO.N,FLEXIBLE_IO_02*%
X109873400Y-41807000D03*
%TO.P,J4,3,Pin_3*%
%TO.N,FLEXIBLE_IO_03*%
X106063400Y-41807000D03*
%TO.P,J4,4,Pin_4*%
%TO.N,FLEXIBLE_IO_04*%
X102253400Y-41807000D03*
%TO.P,J4,5,Pin_5*%
%TO.N,FLEXIBLE_IO_05*%
X98443400Y-41807000D03*
%TO.P,J4,6,Pin_6*%
%TO.N,FLEXIBLE_IO_06*%
X94633400Y-41807000D03*
%TD*%
D10*
%TO.P,D5,1*%
%TO.N,Net-(Q5-C)*%
X104880000Y-146500000D03*
D11*
%TO.P,D5,2*%
%TO.N,LED_TEA_A*%
X107420000Y-146500000D03*
%TD*%
D18*
%TO.P,J11,1*%
%TO.N,SOL_L*%
X132000000Y-137300000D03*
%TO.P,J11,2*%
%TO.N,AC_SOLENOID_PHASE*%
X132000000Y-114700000D03*
%TD*%
D19*
%TO.P,R5,1*%
%TO.N,IN_BOILER_PROBE*%
X136000000Y-70000000D03*
%TO.P,R5,2*%
%TO.N,OUT_BOILER_PROBE_VOLTAGE*%
X138540000Y-70000000D03*
%TD*%
D20*
%TO.P,K2,1,1*%
%TO.N,AC_SOLENOID_PHASE*%
X201430000Y-113820000D03*
%TO.P,K2,2,2*%
%TO.N,AC_SOLENOID_BOILER_FILL*%
X201430000Y-106200000D03*
%TO.P,K2,3,3*%
%TO.N,5V*%
X201430000Y-96040000D03*
%TO.P,K2,4,4*%
%TO.N,Net-(Q2-C)*%
X201430000Y-93500000D03*
%TD*%
D17*
%TO.P,J3,1,Pin_1*%
%TO.N,GND*%
X181120000Y-42000000D03*
D13*
%TO.P,J3,2,Pin_2*%
%TO.N,IN_FLOWMETER_GROUP_TWO*%
X177310000Y-42000000D03*
%TO.P,J3,3,Pin_3*%
%TO.N,3.3V*%
X173500000Y-42000000D03*
%TD*%
D14*
%TO.P,R13,1*%
%TO.N,5V*%
X89880000Y-138500000D03*
%TO.P,R13,2*%
%TO.N,LED_GROUP2_A*%
X97500000Y-138500000D03*
%TD*%
D15*
%TO.P,Q4,1,C*%
%TO.N,Net-(Q4-C)*%
X160700000Y-87500000D03*
D16*
%TO.P,Q4,2,B*%
%TO.N,Net-(Q4-B)*%
X161970000Y-87500000D03*
%TO.P,Q4,3,E*%
%TO.N,GND*%
X163240000Y-87500000D03*
%TD*%
D12*
%TO.P,J10,1,Pin_1*%
%TO.N,GND*%
X147810000Y-41811600D03*
D13*
%TO.P,J10,2,Pin_2*%
%TO.N,IN_BOILER_PROBE*%
X144000000Y-41811600D03*
%TD*%
D17*
%TO.P,J2,1,Pin_1*%
%TO.N,GND*%
X163620000Y-42000000D03*
D13*
%TO.P,J2,2,Pin_2*%
%TO.N,IN_FLOWMETER_GROUP_ONE*%
X159810000Y-42000000D03*
%TO.P,J2,3,Pin_3*%
%TO.N,3.3V*%
X156000000Y-42000000D03*
%TD*%
D12*
%TO.P,J6,1*%
%TO.N,AC_SOLENOID_NEUTRAL*%
X148000000Y-150000000D03*
D13*
%TO.P,J6,2*%
%TO.N,AC_SOLENOID_TEA*%
X151810000Y-150000000D03*
%TO.P,J6,3*%
%TO.N,AC_SOLENOID_NEUTRAL*%
X155620000Y-150000000D03*
%TO.P,J6,4*%
%TO.N,AC_SOLENOID_GROUP_TWO*%
X159430000Y-150000000D03*
%TO.P,J6,5*%
%TO.N,AC_SOLENOID_NEUTRAL*%
X163240000Y-150000000D03*
%TO.P,J6,6*%
%TO.N,AC_SOLENOID_GROUP_ONE*%
X167050000Y-150000000D03*
%TD*%
D12*
%TO.P,J8,1,Pin_1*%
%TO.N,AC_SOLENOID_NEUTRAL*%
X196190000Y-158000000D03*
D13*
%TO.P,J8,2,Pin_2*%
%TO.N,SOL_L*%
X200000000Y-158000000D03*
%TD*%
D20*
%TO.P,K1,1,1*%
%TO.N,AC_PUMP_PHASE*%
X215000000Y-113700000D03*
%TO.P,K1,2,2*%
%TO.N,AC_PUMP_POWER_OUT*%
X215000000Y-106080000D03*
%TO.P,K1,3,3*%
%TO.N,5V*%
X215000000Y-95920000D03*
%TO.P,K1,4,4*%
%TO.N,Net-(Q1-C)*%
X215000000Y-93380000D03*
%TD*%
%TO.P,K3,1,1*%
%TO.N,AC_SOLENOID_PHASE*%
X167050000Y-113820000D03*
%TO.P,K3,2,2*%
%TO.N,AC_SOLENOID_GROUP_ONE*%
X167050000Y-106200000D03*
%TO.P,K3,3,3*%
%TO.N,5V*%
X167050000Y-96040000D03*
%TO.P,K3,4,4*%
%TO.N,Net-(Q3-C)*%
X167050000Y-93500000D03*
%TD*%
D15*
%TO.P,Q3,1,C*%
%TO.N,Net-(Q3-C)*%
X168320000Y-87500000D03*
D16*
%TO.P,Q3,2,B*%
%TO.N,Net-(Q3-B)*%
X169590000Y-87500000D03*
%TO.P,Q3,3,E*%
%TO.N,GND*%
X170860000Y-87500000D03*
%TD*%
D20*
%TO.P,K4,1,1*%
%TO.N,AC_SOLENOID_PHASE*%
X159430000Y-113820000D03*
%TO.P,K4,2,2*%
%TO.N,AC_SOLENOID_GROUP_TWO*%
X159430000Y-106200000D03*
%TO.P,K4,3,3*%
%TO.N,5V*%
X159430000Y-96040000D03*
%TO.P,K4,4,4*%
%TO.N,Net-(Q4-C)*%
X159430000Y-93500000D03*
%TD*%
D15*
%TO.P,Q1,1,C*%
%TO.N,Net-(Q1-C)*%
X216270000Y-87500000D03*
D16*
%TO.P,Q1,2,B*%
%TO.N,Net-(Q1-B)*%
X217540000Y-87500000D03*
%TO.P,Q1,3,E*%
%TO.N,GND*%
X218810000Y-87500000D03*
%TD*%
D10*
%TO.P,D1,1*%
%TO.N,Net-(Q1-C)*%
X104880000Y-114500000D03*
D11*
%TO.P,D1,2*%
%TO.N,LED_PUMP_A*%
X107420000Y-114500000D03*
%TD*%
D20*
%TO.P,K5,1,1*%
%TO.N,AC_SOLENOID_PHASE*%
X151810000Y-113700000D03*
%TO.P,K5,2,2*%
%TO.N,AC_SOLENOID_TEA*%
X151810000Y-106080000D03*
%TO.P,K5,3,3*%
%TO.N,5V*%
X151810000Y-95920000D03*
%TO.P,K5,4,4*%
%TO.N,Net-(Q5-C)*%
X151810000Y-93380000D03*
%TD*%
D14*
%TO.P,R1,1*%
%TO.N,Net-(Q2-B)*%
X202700000Y-81200000D03*
%TO.P,R1,2*%
%TO.N,CONTROL_RELAY_BOILER_FILL*%
X202700000Y-73580000D03*
%TD*%
D21*
%TO.P,U1,1,3.3V*%
%TO.N,3.3V*%
X115500000Y-107980000D03*
D22*
%TO.P,U1,2,EN_RST*%
%TO.N,unconnected-(U1-EN_RST-Pad2)*%
X115500000Y-105440000D03*
%TO.P,U1,3,GPI36*%
%TO.N,unconnected-(U1-GPI36-Pad3)*%
X115500000Y-102900000D03*
%TO.P,U1,4,GPI39*%
%TO.N,unconnected-(U1-GPI39-Pad4)*%
X115500000Y-100360000D03*
%TO.P,U1,5,GPI34*%
%TO.N,IN_BOILER_PROBE*%
X115500000Y-97820000D03*
%TO.P,U1,6,GPI35*%
%TO.N,IN_FLOWMETER_GROUP_TWO*%
X115500000Y-95280000D03*
%TO.P,U1,7,GPIO32*%
%TO.N,FLEXIBLE_IO_08*%
X115500000Y-92740000D03*
%TO.P,U1,8,GPIO33*%
%TO.N,FLEXIBLE_IO_07*%
X115500000Y-90200000D03*
%TO.P,U1,9,GPIO25*%
%TO.N,FLEXIBLE_IO_06*%
X115500000Y-87660000D03*
%TO.P,U1,10,GPIO26*%
%TO.N,FLEXIBLE_IO_05*%
X115500000Y-85120000D03*
%TO.P,U1,11,GPIO27*%
%TO.N,FLEXIBLE_IO_04*%
X115500000Y-82580000D03*
%TO.P,U1,12,GPIO14*%
%TO.N,FLEXIBLE_IO_03*%
X115500000Y-80040000D03*
%TO.P,U1,13,GPIO12*%
%TO.N,FLEXIBLE_IO_02*%
X115500000Y-77500000D03*
%TO.P,U1,14,GND*%
%TO.N,unconnected-(U1-GND-Pad14)*%
X115500000Y-74960000D03*
%TO.P,U1,15,GPIO13*%
%TO.N,FLEXIBLE_IO_01*%
X115500000Y-72420000D03*
%TO.P,U1,16,GPIO9*%
%TO.N,unconnected-(U1-GPIO9-Pad16)*%
X115500000Y-69880000D03*
%TO.P,U1,17,GPIO10*%
%TO.N,unconnected-(U1-GPIO10-Pad17)*%
X115500000Y-67340000D03*
%TO.P,U1,18,GPIO11*%
%TO.N,unconnected-(U1-GPIO11-Pad18)*%
X115500000Y-64800000D03*
%TO.P,U1,19,5V*%
%TO.N,5V*%
X115500000Y-62260000D03*
D21*
%TO.P,U1,20,GPIO6*%
%TO.N,unconnected-(U1-GPIO6-Pad20)*%
X90000000Y-107980000D03*
D22*
%TO.P,U1,21,GPIO7*%
%TO.N,unconnected-(U1-GPIO7-Pad21)*%
X90000000Y-105440000D03*
%TO.P,U1,22,GPIO8*%
%TO.N,unconnected-(U1-GPIO8-Pad22)*%
X90000000Y-102900000D03*
%TO.P,U1,23,GPIO15*%
%TO.N,CONTROL_RELAY_TEA*%
X90000000Y-100360000D03*
%TO.P,U1,24,GPIO2*%
%TO.N,CONTROL_RELAY_BOILER_FILL*%
X90000000Y-97820000D03*
%TO.P,U1,25,GPIO0*%
%TO.N,unconnected-(U1-GPIO0-Pad25)*%
X90000000Y-95280000D03*
%TO.P,U1,26,GPIO4*%
%TO.N,CONTROL_RELAY_GROUP_TWO*%
X90000000Y-92740000D03*
%TO.P,U1,27,GPIO16*%
%TO.N,IN_FLOWMETER_GROUP_ONE*%
X90000000Y-90200000D03*
%TO.P,U1,28,GPIO17*%
%TO.N,OUT_BOILER_PROBE_VOLTAGE*%
X90000000Y-87660000D03*
%TO.P,U1,29,GPIO5*%
%TO.N,CONTROL_RELAY_GROUP_ONE*%
X90000000Y-85120000D03*
%TO.P,U1,30,GPIO18*%
%TO.N,CONTROL_RELAY_PUMP*%
X90000000Y-82580000D03*
%TO.P,U1,31,GPIO19*%
%TO.N,FLEXIBLE_IO_09*%
X90000000Y-80040000D03*
%TO.P,U1,32,GND*%
%TO.N,unconnected-(U1-GND-Pad32)*%
X90000000Y-77500000D03*
%TO.P,U1,33,GPIO21*%
%TO.N,FLEXIBLE_IO_10*%
X90000000Y-74960000D03*
%TO.P,U1,34,GPIO3*%
%TO.N,unconnected-(U1-GPIO3-Pad34)*%
X90000000Y-72420000D03*
%TO.P,U1,35,GPIO1*%
%TO.N,unconnected-(U1-GPIO1-Pad35)*%
X90000000Y-69880000D03*
%TO.P,U1,36,GPIO22*%
%TO.N,FLEXIBLE_IO_11*%
X90000000Y-67340000D03*
%TO.P,U1,37,GPIO23*%
%TO.N,FLEXIBLE_IO_12*%
X90000000Y-64800000D03*
%TO.P,U1,38,GND*%
%TO.N,GND*%
X90000000Y-62260000D03*
%TD*%
D14*
%TO.P,R14,1*%
%TO.N,5V*%
X89880000Y-146500000D03*
%TO.P,R14,2*%
%TO.N,LED_TEA_A*%
X97500000Y-146500000D03*
%TD*%
%TO.P,R2,1*%
%TO.N,CONTROL_RELAY_GROUP_ONE*%
X168320000Y-73580000D03*
%TO.P,R2,2*%
%TO.N,Net-(Q3-B)*%
X168320000Y-81200000D03*
%TD*%
D19*
%TO.P,R7,1*%
%TO.N,IN_BOILER_PROBE*%
X136000000Y-74000000D03*
%TO.P,R7,2*%
%TO.N,GND*%
X138540000Y-74000000D03*
%TD*%
D14*
%TO.P,R8,1*%
%TO.N,IN_FLOWMETER_GROUP_TWO*%
X174500000Y-62000000D03*
%TO.P,R8,2*%
%TO.N,3.3V*%
X182120000Y-62000000D03*
%TD*%
%TO.P,R11,1*%
%TO.N,5V*%
X89880000Y-122500000D03*
%TO.P,R11,2*%
%TO.N,LED_BOILER_FILL_A*%
X97500000Y-122500000D03*
%TD*%
%TO.P,R4,1*%
%TO.N,Net-(Q5-B)*%
X153080000Y-81200000D03*
%TO.P,R4,2*%
%TO.N,CONTROL_RELAY_TEA*%
X153080000Y-73580000D03*
%TD*%
%TO.P,R3,1*%
%TO.N,Net-(Q4-B)*%
X160700000Y-81200000D03*
%TO.P,R3,2*%
%TO.N,CONTROL_RELAY_GROUP_TWO*%
X160700000Y-73580000D03*
%TD*%
%TO.P,R10,1*%
%TO.N,5V*%
X89880000Y-114500000D03*
%TO.P,R10,2*%
%TO.N,LED_PUMP_A*%
X97500000Y-114500000D03*
%TD*%
D18*
%TO.P,J12,1*%
%TO.N,5V*%
X212000000Y-81300000D03*
%TO.P,J12,2*%
X212000000Y-58700000D03*
%TD*%
D12*
%TO.P,J1,1,Pin_1*%
%TO.N,GND*%
X208190000Y-158000000D03*
D13*
%TO.P,J1,2,Pin_2*%
%TO.N,5V*%
X212000000Y-158000000D03*
%TD*%
D15*
%TO.P,Q5,1,C*%
%TO.N,Net-(Q5-C)*%
X153080000Y-87500000D03*
D16*
%TO.P,Q5,2,B*%
%TO.N,Net-(Q5-B)*%
X154350000Y-87500000D03*
%TO.P,Q5,3,E*%
%TO.N,GND*%
X155620000Y-87500000D03*
%TD*%
D10*
%TO.P,D4,1*%
%TO.N,Net-(Q4-C)*%
X104880000Y-138500000D03*
D11*
%TO.P,D4,2*%
%TO.N,LED_GROUP2_A*%
X107420000Y-138500000D03*
%TD*%
D14*
%TO.P,R12,1*%
%TO.N,5V*%
X89880000Y-130500000D03*
%TO.P,R12,2*%
%TO.N,LED_GROUP1_A*%
X97500000Y-130500000D03*
%TD*%
D10*
%TO.P,D3,1*%
%TO.N,Net-(Q3-C)*%
X104880000Y-130500000D03*
D11*
%TO.P,D3,2*%
%TO.N,LED_GROUP1_A*%
X107420000Y-130500000D03*
%TD*%
D14*
%TO.P,R6,1*%
%TO.N,Net-(Q1-B)*%
X222500000Y-81200000D03*
%TO.P,R6,2*%
%TO.N,CONTROL_RELAY_PUMP*%
X222500000Y-73580000D03*
%TD*%
D17*
%TO.P,J5,1,Pin_1*%
%TO.N,FLEXIBLE_IO_07*%
X138050000Y-41806400D03*
D13*
%TO.P,J5,2,Pin_2*%
%TO.N,FLEXIBLE_IO_08*%
X134240000Y-41806400D03*
%TO.P,J5,3,Pin_3*%
%TO.N,FLEXIBLE_IO_09*%
X130430000Y-41806400D03*
%TO.P,J5,4,Pin_4*%
%TO.N,FLEXIBLE_IO_10*%
X126620000Y-41806400D03*
%TO.P,J5,5,Pin_5*%
%TO.N,FLEXIBLE_IO_11*%
X122810000Y-41806400D03*
%TO.P,J5,6,Pin_6*%
%TO.N,FLEXIBLE_IO_12*%
X119000000Y-41806400D03*
%TD*%
D23*
%TO.N,Net-(Q2-C)*%
X130173000Y-97182500D03*
%TO.N,GND*%
X220619000Y-148949800D03*
%TO.N,5V*%
X219899900Y-154683700D03*
X144402600Y-95920000D03*
X137538300Y-62260000D03*
%TO.N,Net-(Q4-C)*%
X119812300Y-108394000D03*
%TO.N,Net-(Q3-C)*%
X157282900Y-103729000D03*
%TO.N,CONTROL_RELAY_GROUP_ONE*%
X166233700Y-69311700D03*
%TD*%
%TO.N,Net-(Q2-C)*%
D24*
X141721400Y-97182500D02*
X130173000Y-97182500D01*
X144133900Y-94770000D02*
X141721400Y-97182500D01*
X200160000Y-94770000D02*
X144133900Y-94770000D01*
X201430000Y-93500000D02*
X200160000Y-94770000D01*
%TO.N,LED_BOILER_FILL_A*%
X97500000Y-122500000D02*
X98732100Y-123732100D01*
X98732100Y-123732100D02*
X106187900Y-123732100D01*
X106187900Y-123732100D02*
X107420000Y-122500000D01*
%TO.N,AC_PUMP_PHASE*%
D25*
X215000000Y-113700000D02*
X223500000Y-122200000D01*
X223500000Y-122200000D02*
X223500000Y-158000000D01*
%TO.N,IN_FLOWMETER_GROUP_ONE*%
D24*
X90000000Y-89048300D02*
X89712100Y-89048300D01*
X140145400Y-62000000D02*
X154500000Y-62000000D01*
X99659200Y-81395600D02*
X109904800Y-71150000D01*
X88424300Y-87760500D02*
X88424300Y-82513900D01*
X88424300Y-82513900D02*
X89542600Y-81395600D01*
X109904800Y-71150000D02*
X130995400Y-71150000D01*
X130995400Y-71150000D02*
X140145400Y-62000000D01*
X90000000Y-90200000D02*
X90000000Y-89048300D01*
X89712100Y-89048300D02*
X88424300Y-87760500D01*
X89542600Y-81395600D02*
X99659200Y-81395600D01*
%TO.N,3.3V*%
X156000000Y-42000000D02*
X157325200Y-43325200D01*
X163623400Y-60496600D02*
X162120000Y-62000000D01*
X172174800Y-43325200D02*
X173500000Y-42000000D01*
X180616600Y-60496600D02*
X163623400Y-60496600D01*
X157325200Y-43325200D02*
X172174800Y-43325200D01*
X182120000Y-62000000D02*
X180616600Y-60496600D01*
%TO.N,AC_SOLENOID_NEUTRAL*%
D25*
X186120000Y-153539800D02*
X190580200Y-158000000D01*
X186120000Y-153539800D02*
X165576300Y-153539800D01*
X165576300Y-153539800D02*
X163240000Y-151203500D01*
X186120000Y-150000000D02*
X186120000Y-153539800D01*
X190580200Y-158000000D02*
X196190000Y-158000000D01*
X163240000Y-151203500D02*
X163240000Y-150000000D01*
%TO.N,AC_SOLENOID_BOILER_FILL*%
X189930000Y-117700000D02*
X189930000Y-150000000D01*
X201430000Y-106200000D02*
X189930000Y-117700000D01*
%TO.N,GND*%
D24*
X148949800Y-40671800D02*
X162291800Y-40671800D01*
X146498100Y-40499700D02*
X122211800Y-40499700D01*
X155620000Y-87500000D02*
X156446700Y-87500000D01*
X163241500Y-88551700D02*
X170860000Y-88551700D01*
X163240000Y-88550200D02*
X163240000Y-88551700D01*
X218810000Y-87500000D02*
X218810000Y-88551700D01*
X179765900Y-40645900D02*
X181120000Y-42000000D01*
X122211800Y-40499700D02*
X100451500Y-62260000D01*
X217240200Y-148949800D02*
X220619000Y-148949800D01*
X205240000Y-87500000D02*
X206066700Y-87500000D01*
X100451500Y-62260000D02*
X90000000Y-62260000D01*
X218810000Y-88551700D02*
X207118400Y-88551700D01*
X205015000Y-88551700D02*
X206066700Y-87500000D01*
X162291800Y-40671800D02*
X163620000Y-42000000D01*
X170860000Y-87500000D02*
X170860000Y-88551700D01*
X147810000Y-41811600D02*
X148949800Y-40671800D01*
X163240000Y-88550200D02*
X163241500Y-88551700D01*
X170860000Y-88551700D02*
X205015000Y-88551700D01*
X156446700Y-87500000D02*
X157498400Y-88551700D01*
X208190000Y-158000000D02*
X217240200Y-148949800D01*
X207118400Y-88551700D02*
X206066700Y-87500000D01*
X147810000Y-41811600D02*
X146498100Y-40499700D01*
X163620000Y-42000000D02*
X164974100Y-40645900D01*
X164974100Y-40645900D02*
X179765900Y-40645900D01*
X163240000Y-87500000D02*
X163240000Y-88550200D01*
X157498400Y-88551700D02*
X163240000Y-88551700D01*
%TO.N,LED_TEA_A*%
X98701700Y-147701700D02*
X106218300Y-147701700D01*
X106218300Y-147701700D02*
X107420000Y-146500000D01*
X97500000Y-146500000D02*
X98701700Y-147701700D01*
%TO.N,SOL_L*%
D25*
X154058300Y-161531900D02*
X198081100Y-161531900D01*
X200000000Y-159613000D02*
X200000000Y-158000000D01*
X132000000Y-137300000D02*
X132000000Y-139473600D01*
X132000000Y-139473600D02*
X154058300Y-161531900D01*
X198081100Y-161531900D02*
X200000000Y-159613000D01*
%TO.N,AC_SOLENOID_PHASE*%
X151810000Y-113700000D02*
X133000000Y-113700000D01*
X133000000Y-113700000D02*
X132000000Y-114700000D01*
X159310000Y-113700000D02*
X159430000Y-113820000D01*
X159430000Y-113820000D02*
X167050000Y-113820000D01*
X151810000Y-113700000D02*
X159310000Y-113700000D01*
%TO.N,OUT_BOILER_PROBE_VOLTAGE*%
D24*
X113376900Y-78770000D02*
X129770000Y-78770000D01*
X89712100Y-86508300D02*
X88826000Y-85622200D01*
X89564100Y-83850000D02*
X92350900Y-83850000D01*
X90000000Y-87660000D02*
X90000000Y-86508300D01*
X88826000Y-84588100D02*
X89564100Y-83850000D01*
X108778100Y-83368800D02*
X113376900Y-78770000D01*
X88826000Y-85622200D02*
X88826000Y-84588100D01*
X92350900Y-83850000D02*
X92832100Y-83368800D01*
X129770000Y-78770000D02*
X138540000Y-70000000D01*
X90000000Y-86508300D02*
X89712100Y-86508300D01*
X92832100Y-83368800D02*
X108778100Y-83368800D01*
%TO.N,5V*%
X144402600Y-95920000D02*
X131099400Y-109223200D01*
X144402600Y-95920000D02*
X151810000Y-95920000D01*
X215316300Y-154683700D02*
X219899900Y-154683700D01*
X159310000Y-95920000D02*
X159430000Y-96040000D01*
X159430000Y-96040000D02*
X167050000Y-96040000D01*
X115500000Y-62260000D02*
X137538300Y-62260000D01*
X167050000Y-96040000D02*
X201430000Y-96040000D01*
X215000000Y-95920000D02*
X201550000Y-95920000D01*
X95156800Y-109223200D02*
X89880000Y-114500000D01*
X131099400Y-109223200D02*
X95156800Y-109223200D01*
X212000000Y-158000000D02*
X215316300Y-154683700D01*
X151810000Y-95920000D02*
X159310000Y-95920000D01*
X201550000Y-95920000D02*
X201430000Y-96040000D01*
%TO.N,IN_FLOWMETER_GROUP_TWO*%
X174500000Y-62000000D02*
X141220000Y-95280000D01*
X141220000Y-95280000D02*
X115500000Y-95280000D01*
%TO.N,LED_GROUP2_A*%
X97500000Y-138500000D02*
X98701700Y-137298300D01*
X106218300Y-137298300D02*
X107420000Y-138500000D01*
X98701700Y-137298300D02*
X106218300Y-137298300D01*
%TO.N,Net-(Q4-C)*%
X130066900Y-96403300D02*
X119812300Y-106657900D01*
X145601600Y-92283500D02*
X141481800Y-96403300D01*
X159430000Y-93500000D02*
X158213500Y-92283500D01*
X119812300Y-106657900D02*
X119812300Y-108394000D01*
X141481800Y-96403300D02*
X130066900Y-96403300D01*
X158213500Y-92283500D02*
X145601600Y-92283500D01*
%TO.N,Net-(Q1-C)*%
X106081700Y-114124400D02*
X106907800Y-113298300D01*
X215393700Y-97092500D02*
X216092600Y-96393600D01*
X216092600Y-94472600D02*
X215000000Y-93380000D01*
X216092600Y-96393600D02*
X216092600Y-94472600D01*
X104880000Y-114500000D02*
X106081700Y-114500000D01*
X106907800Y-113298300D02*
X127875200Y-113298300D01*
X106081700Y-114500000D02*
X106081700Y-114124400D01*
X127875200Y-113298300D02*
X144081000Y-97092500D01*
X144081000Y-97092500D02*
X215393700Y-97092500D01*
%TO.N,Net-(Q3-C)*%
X104880000Y-130500000D02*
X106081700Y-130500000D01*
X106081700Y-130124400D02*
X106081700Y-130500000D01*
X157282900Y-103729000D02*
X138998500Y-103729000D01*
X106907800Y-129298300D02*
X106081700Y-130124400D01*
X138998500Y-103729000D02*
X113429200Y-129298300D01*
X113429200Y-129298300D02*
X106907800Y-129298300D01*
%TO.N,CONTROL_RELAY_BOILER_FILL*%
X90000000Y-97820000D02*
X91151700Y-97820000D01*
X141186100Y-95989600D02*
X129853600Y-95989600D01*
X129853600Y-95989600D02*
X129174900Y-96668300D01*
X92303400Y-96668300D02*
X91151700Y-97820000D01*
X152507500Y-84668200D02*
X141186100Y-95989600D01*
X202700000Y-73580000D02*
X191611800Y-84668200D01*
X129174900Y-96668300D02*
X92303400Y-96668300D01*
X191611800Y-84668200D02*
X152507500Y-84668200D01*
%TO.N,CONTROL_RELAY_TEA*%
X89712100Y-99208300D02*
X88826000Y-98322200D01*
X88826000Y-97288100D02*
X89682400Y-96431700D01*
X90000000Y-100360000D02*
X90000000Y-99208300D01*
X95540800Y-91388300D02*
X135271700Y-91388300D01*
X89682400Y-96431700D02*
X90497400Y-96431700D01*
X135271700Y-91388300D02*
X153080000Y-73580000D01*
X88826000Y-98322200D02*
X88826000Y-97288100D01*
X90497400Y-96431700D02*
X95540800Y-91388300D01*
X90000000Y-99208300D02*
X89712100Y-99208300D01*
%TO.N,CONTROL_RELAY_GROUP_TWO*%
X152053600Y-72438500D02*
X159558500Y-72438500D01*
X138102100Y-86390000D02*
X152053600Y-72438500D01*
X159558500Y-72438500D02*
X160700000Y-73580000D01*
X97501700Y-86390000D02*
X138102100Y-86390000D01*
X91151700Y-92740000D02*
X97501700Y-86390000D01*
X90000000Y-92740000D02*
X91151700Y-92740000D01*
%TO.N,CONTROL_RELAY_GROUP_ONE*%
X93069100Y-83770500D02*
X132729500Y-83770500D01*
X90000000Y-85120000D02*
X91151700Y-85120000D01*
X147188300Y-69311700D02*
X166233700Y-69311700D01*
X132729500Y-83770500D02*
X147188300Y-69311700D01*
X91719600Y-85120000D02*
X93069100Y-83770500D01*
X91151700Y-85120000D02*
X91719600Y-85120000D01*
%TO.N,CONTROL_RELAY_PUMP*%
X90000000Y-82580000D02*
X99917200Y-82580000D01*
X176842000Y-60898300D02*
X180324500Y-64380800D01*
X129094100Y-73690000D02*
X139638200Y-63145900D01*
X180324500Y-64380800D02*
X213300800Y-64380800D01*
X99917200Y-82580000D02*
X108807200Y-73690000D01*
X139638200Y-63145900D02*
X171552400Y-63145900D01*
X108807200Y-73690000D02*
X129094100Y-73690000D01*
X171552400Y-63145900D02*
X173800000Y-60898300D01*
X173800000Y-60898300D02*
X176842000Y-60898300D01*
X213300800Y-64380800D02*
X222500000Y-73580000D01*
%TO.N,FLEXIBLE_IO_09*%
X92196400Y-80040000D02*
X90000000Y-80040000D01*
X130430000Y-41806400D02*
X92196400Y-80040000D01*
%TO.N,FLEXIBLE_IO_10*%
X93466400Y-74960000D02*
X90000000Y-74960000D01*
X126620000Y-41806400D02*
X93466400Y-74960000D01*
%TO.N,FLEXIBLE_IO_11*%
X122810000Y-41806400D02*
X97276400Y-67340000D01*
X97276400Y-67340000D02*
X90000000Y-67340000D01*
%TO.N,FLEXIBLE_IO_12*%
X102563500Y-48030900D02*
X88816100Y-61778300D01*
X103661100Y-48030900D02*
X102563500Y-48030900D01*
X119000000Y-41806400D02*
X112777000Y-48029400D01*
X89712100Y-63648300D02*
X90000000Y-63648300D01*
X103662600Y-48029400D02*
X103661100Y-48030900D01*
X88816100Y-62752300D02*
X89712100Y-63648300D01*
X112777000Y-48029400D02*
X103662600Y-48029400D01*
X88816100Y-61778300D02*
X88816100Y-62752300D01*
X90000000Y-64800000D02*
X90000000Y-63648300D01*
%TO.N,LED_GROUP1_A*%
X106218300Y-131701700D02*
X107420000Y-130500000D01*
X98701700Y-131701700D02*
X106218300Y-131701700D01*
X97500000Y-130500000D02*
X98701700Y-131701700D01*
%TD*%
M02*
