%TF.GenerationSoftware,KiCad,Pcbnew,10.0.2*%
%TF.CreationDate,2026-05-20T17:45:16+02:00*%
%TF.ProjectId,BrewPilot,42726577-5069-46c6-9f74-2e6b69636164,rev?*%
%TF.SameCoordinates,Original*%
%TF.FileFunction,Legend,Top*%
%TF.FilePolarity,Positive*%
%FSLAX46Y46*%
G04 Gerber Fmt 4.6, Leading zero omitted, Abs format (unit mm)*
G04 Created by KiCad (PCBNEW 10.0.2) date 2026-05-20 17:45:16*
%MOMM*%
%LPD*%
G01*
G04 APERTURE LIST*
%ADD10C,0.150000*%
%ADD11C,0.120000*%
%ADD12C,0.200000*%
%ADD13C,0.152400*%
G04 APERTURE END LIST*
D10*
X105411905Y-119994819D02*
X105411905Y-118994819D01*
X105411905Y-118994819D02*
X105650000Y-118994819D01*
X105650000Y-118994819D02*
X105792857Y-119042438D01*
X105792857Y-119042438D02*
X105888095Y-119137676D01*
X105888095Y-119137676D02*
X105935714Y-119232914D01*
X105935714Y-119232914D02*
X105983333Y-119423390D01*
X105983333Y-119423390D02*
X105983333Y-119566247D01*
X105983333Y-119566247D02*
X105935714Y-119756723D01*
X105935714Y-119756723D02*
X105888095Y-119851961D01*
X105888095Y-119851961D02*
X105792857Y-119947200D01*
X105792857Y-119947200D02*
X105650000Y-119994819D01*
X105650000Y-119994819D02*
X105411905Y-119994819D01*
X106364286Y-119090057D02*
X106411905Y-119042438D01*
X106411905Y-119042438D02*
X106507143Y-118994819D01*
X106507143Y-118994819D02*
X106745238Y-118994819D01*
X106745238Y-118994819D02*
X106840476Y-119042438D01*
X106840476Y-119042438D02*
X106888095Y-119090057D01*
X106888095Y-119090057D02*
X106935714Y-119185295D01*
X106935714Y-119185295D02*
X106935714Y-119280533D01*
X106935714Y-119280533D02*
X106888095Y-119423390D01*
X106888095Y-119423390D02*
X106316667Y-119994819D01*
X106316667Y-119994819D02*
X106935714Y-119994819D01*
X221261666Y-152634819D02*
X221261666Y-153349104D01*
X221261666Y-153349104D02*
X221214047Y-153491961D01*
X221214047Y-153491961D02*
X221118809Y-153587200D01*
X221118809Y-153587200D02*
X220975952Y-153634819D01*
X220975952Y-153634819D02*
X220880714Y-153634819D01*
X221785476Y-153634819D02*
X221975952Y-153634819D01*
X221975952Y-153634819D02*
X222071190Y-153587200D01*
X222071190Y-153587200D02*
X222118809Y-153539580D01*
X222118809Y-153539580D02*
X222214047Y-153396723D01*
X222214047Y-153396723D02*
X222261666Y-153206247D01*
X222261666Y-153206247D02*
X222261666Y-152825295D01*
X222261666Y-152825295D02*
X222214047Y-152730057D01*
X222214047Y-152730057D02*
X222166428Y-152682438D01*
X222166428Y-152682438D02*
X222071190Y-152634819D01*
X222071190Y-152634819D02*
X221880714Y-152634819D01*
X221880714Y-152634819D02*
X221785476Y-152682438D01*
X221785476Y-152682438D02*
X221737857Y-152730057D01*
X221737857Y-152730057D02*
X221690238Y-152825295D01*
X221690238Y-152825295D02*
X221690238Y-153063390D01*
X221690238Y-153063390D02*
X221737857Y-153158628D01*
X221737857Y-153158628D02*
X221785476Y-153206247D01*
X221785476Y-153206247D02*
X221880714Y-153253866D01*
X221880714Y-153253866D02*
X222071190Y-153253866D01*
X222071190Y-153253866D02*
X222166428Y-153206247D01*
X222166428Y-153206247D02*
X222214047Y-153158628D01*
X222214047Y-153158628D02*
X222261666Y-153063390D01*
X158143333Y-60084819D02*
X157810000Y-59608628D01*
X157571905Y-60084819D02*
X157571905Y-59084819D01*
X157571905Y-59084819D02*
X157952857Y-59084819D01*
X157952857Y-59084819D02*
X158048095Y-59132438D01*
X158048095Y-59132438D02*
X158095714Y-59180057D01*
X158095714Y-59180057D02*
X158143333Y-59275295D01*
X158143333Y-59275295D02*
X158143333Y-59418152D01*
X158143333Y-59418152D02*
X158095714Y-59513390D01*
X158095714Y-59513390D02*
X158048095Y-59561009D01*
X158048095Y-59561009D02*
X157952857Y-59608628D01*
X157952857Y-59608628D02*
X157571905Y-59608628D01*
X158619524Y-60084819D02*
X158810000Y-60084819D01*
X158810000Y-60084819D02*
X158905238Y-60037200D01*
X158905238Y-60037200D02*
X158952857Y-59989580D01*
X158952857Y-59989580D02*
X159048095Y-59846723D01*
X159048095Y-59846723D02*
X159095714Y-59656247D01*
X159095714Y-59656247D02*
X159095714Y-59275295D01*
X159095714Y-59275295D02*
X159048095Y-59180057D01*
X159048095Y-59180057D02*
X159000476Y-59132438D01*
X159000476Y-59132438D02*
X158905238Y-59084819D01*
X158905238Y-59084819D02*
X158714762Y-59084819D01*
X158714762Y-59084819D02*
X158619524Y-59132438D01*
X158619524Y-59132438D02*
X158571905Y-59180057D01*
X158571905Y-59180057D02*
X158524286Y-59275295D01*
X158524286Y-59275295D02*
X158524286Y-59513390D01*
X158524286Y-59513390D02*
X158571905Y-59608628D01*
X158571905Y-59608628D02*
X158619524Y-59656247D01*
X158619524Y-59656247D02*
X158714762Y-59703866D01*
X158714762Y-59703866D02*
X158905238Y-59703866D01*
X158905238Y-59703866D02*
X159000476Y-59656247D01*
X159000476Y-59656247D02*
X159048095Y-59608628D01*
X159048095Y-59608628D02*
X159095714Y-59513390D01*
X183881666Y-144634819D02*
X183881666Y-145349104D01*
X183881666Y-145349104D02*
X183834047Y-145491961D01*
X183834047Y-145491961D02*
X183738809Y-145587200D01*
X183738809Y-145587200D02*
X183595952Y-145634819D01*
X183595952Y-145634819D02*
X183500714Y-145634819D01*
X184262619Y-144634819D02*
X184929285Y-144634819D01*
X184929285Y-144634819D02*
X184500714Y-145634819D01*
X203874761Y-84490057D02*
X203779523Y-84442438D01*
X203779523Y-84442438D02*
X203684285Y-84347200D01*
X203684285Y-84347200D02*
X203541428Y-84204342D01*
X203541428Y-84204342D02*
X203446190Y-84156723D01*
X203446190Y-84156723D02*
X203350952Y-84156723D01*
X203398571Y-84394819D02*
X203303333Y-84347200D01*
X203303333Y-84347200D02*
X203208095Y-84251961D01*
X203208095Y-84251961D02*
X203160476Y-84061485D01*
X203160476Y-84061485D02*
X203160476Y-83728152D01*
X203160476Y-83728152D02*
X203208095Y-83537676D01*
X203208095Y-83537676D02*
X203303333Y-83442438D01*
X203303333Y-83442438D02*
X203398571Y-83394819D01*
X203398571Y-83394819D02*
X203589047Y-83394819D01*
X203589047Y-83394819D02*
X203684285Y-83442438D01*
X203684285Y-83442438D02*
X203779523Y-83537676D01*
X203779523Y-83537676D02*
X203827142Y-83728152D01*
X203827142Y-83728152D02*
X203827142Y-84061485D01*
X203827142Y-84061485D02*
X203779523Y-84251961D01*
X203779523Y-84251961D02*
X203684285Y-84347200D01*
X203684285Y-84347200D02*
X203589047Y-84394819D01*
X203589047Y-84394819D02*
X203398571Y-84394819D01*
X204208095Y-83490057D02*
X204255714Y-83442438D01*
X204255714Y-83442438D02*
X204350952Y-83394819D01*
X204350952Y-83394819D02*
X204589047Y-83394819D01*
X204589047Y-83394819D02*
X204684285Y-83442438D01*
X204684285Y-83442438D02*
X204731904Y-83490057D01*
X204731904Y-83490057D02*
X204779523Y-83585295D01*
X204779523Y-83585295D02*
X204779523Y-83680533D01*
X204779523Y-83680533D02*
X204731904Y-83823390D01*
X204731904Y-83823390D02*
X204160476Y-84394819D01*
X204160476Y-84394819D02*
X204779523Y-84394819D01*
X103825066Y-46081819D02*
X103825066Y-46796104D01*
X103825066Y-46796104D02*
X103777447Y-46938961D01*
X103777447Y-46938961D02*
X103682209Y-47034200D01*
X103682209Y-47034200D02*
X103539352Y-47081819D01*
X103539352Y-47081819D02*
X103444114Y-47081819D01*
X104729828Y-46415152D02*
X104729828Y-47081819D01*
X104491733Y-46034200D02*
X104253638Y-46748485D01*
X104253638Y-46748485D02*
X104872685Y-46748485D01*
X105411905Y-143994819D02*
X105411905Y-142994819D01*
X105411905Y-142994819D02*
X105650000Y-142994819D01*
X105650000Y-142994819D02*
X105792857Y-143042438D01*
X105792857Y-143042438D02*
X105888095Y-143137676D01*
X105888095Y-143137676D02*
X105935714Y-143232914D01*
X105935714Y-143232914D02*
X105983333Y-143423390D01*
X105983333Y-143423390D02*
X105983333Y-143566247D01*
X105983333Y-143566247D02*
X105935714Y-143756723D01*
X105935714Y-143756723D02*
X105888095Y-143851961D01*
X105888095Y-143851961D02*
X105792857Y-143947200D01*
X105792857Y-143947200D02*
X105650000Y-143994819D01*
X105650000Y-143994819D02*
X105411905Y-143994819D01*
X106888095Y-142994819D02*
X106411905Y-142994819D01*
X106411905Y-142994819D02*
X106364286Y-143471009D01*
X106364286Y-143471009D02*
X106411905Y-143423390D01*
X106411905Y-143423390D02*
X106507143Y-143375771D01*
X106507143Y-143375771D02*
X106745238Y-143375771D01*
X106745238Y-143375771D02*
X106840476Y-143423390D01*
X106840476Y-143423390D02*
X106888095Y-143471009D01*
X106888095Y-143471009D02*
X106935714Y-143566247D01*
X106935714Y-143566247D02*
X106935714Y-143804342D01*
X106935714Y-143804342D02*
X106888095Y-143899580D01*
X106888095Y-143899580D02*
X106840476Y-143947200D01*
X106840476Y-143947200D02*
X106745238Y-143994819D01*
X106745238Y-143994819D02*
X106507143Y-143994819D01*
X106507143Y-143994819D02*
X106411905Y-143947200D01*
X106411905Y-143947200D02*
X106364286Y-143899580D01*
X125319819Y-126809523D02*
X126034104Y-126809523D01*
X126034104Y-126809523D02*
X126176961Y-126857142D01*
X126176961Y-126857142D02*
X126272200Y-126952380D01*
X126272200Y-126952380D02*
X126319819Y-127095237D01*
X126319819Y-127095237D02*
X126319819Y-127190475D01*
X126319819Y-125809523D02*
X126319819Y-126380951D01*
X126319819Y-126095237D02*
X125319819Y-126095237D01*
X125319819Y-126095237D02*
X125462676Y-126190475D01*
X125462676Y-126190475D02*
X125557914Y-126285713D01*
X125557914Y-126285713D02*
X125605533Y-126380951D01*
X126319819Y-124857142D02*
X126319819Y-125428570D01*
X126319819Y-125142856D02*
X125319819Y-125142856D01*
X125319819Y-125142856D02*
X125462676Y-125238094D01*
X125462676Y-125238094D02*
X125557914Y-125333332D01*
X125557914Y-125333332D02*
X125605533Y-125428570D01*
X137103333Y-68534819D02*
X136770000Y-68058628D01*
X136531905Y-68534819D02*
X136531905Y-67534819D01*
X136531905Y-67534819D02*
X136912857Y-67534819D01*
X136912857Y-67534819D02*
X137008095Y-67582438D01*
X137008095Y-67582438D02*
X137055714Y-67630057D01*
X137055714Y-67630057D02*
X137103333Y-67725295D01*
X137103333Y-67725295D02*
X137103333Y-67868152D01*
X137103333Y-67868152D02*
X137055714Y-67963390D01*
X137055714Y-67963390D02*
X137008095Y-68011009D01*
X137008095Y-68011009D02*
X136912857Y-68058628D01*
X136912857Y-68058628D02*
X136531905Y-68058628D01*
X138008095Y-67534819D02*
X137531905Y-67534819D01*
X137531905Y-67534819D02*
X137484286Y-68011009D01*
X137484286Y-68011009D02*
X137531905Y-67963390D01*
X137531905Y-67963390D02*
X137627143Y-67915771D01*
X137627143Y-67915771D02*
X137865238Y-67915771D01*
X137865238Y-67915771D02*
X137960476Y-67963390D01*
X137960476Y-67963390D02*
X138008095Y-68011009D01*
X138008095Y-68011009D02*
X138055714Y-68106247D01*
X138055714Y-68106247D02*
X138055714Y-68344342D01*
X138055714Y-68344342D02*
X138008095Y-68439580D01*
X138008095Y-68439580D02*
X137960476Y-68487200D01*
X137960476Y-68487200D02*
X137865238Y-68534819D01*
X137865238Y-68534819D02*
X137627143Y-68534819D01*
X137627143Y-68534819D02*
X137531905Y-68487200D01*
X137531905Y-68487200D02*
X137484286Y-68439580D01*
X200484819Y-104398094D02*
X199484819Y-104398094D01*
X200484819Y-103826666D02*
X199913390Y-104255237D01*
X199484819Y-103826666D02*
X200056247Y-104398094D01*
X199580057Y-103445713D02*
X199532438Y-103398094D01*
X199532438Y-103398094D02*
X199484819Y-103302856D01*
X199484819Y-103302856D02*
X199484819Y-103064761D01*
X199484819Y-103064761D02*
X199532438Y-102969523D01*
X199532438Y-102969523D02*
X199580057Y-102921904D01*
X199580057Y-102921904D02*
X199675295Y-102874285D01*
X199675295Y-102874285D02*
X199770533Y-102874285D01*
X199770533Y-102874285D02*
X199913390Y-102921904D01*
X199913390Y-102921904D02*
X200484819Y-103493332D01*
X200484819Y-103493332D02*
X200484819Y-102874285D01*
X200884819Y-116931499D02*
X201122914Y-116931499D01*
X201027676Y-117169594D02*
X201122914Y-116931499D01*
X201122914Y-116931499D02*
X201027676Y-116693404D01*
X201313390Y-117074356D02*
X201122914Y-116931499D01*
X201122914Y-116931499D02*
X201313390Y-116788642D01*
X176976666Y-46274819D02*
X176976666Y-46989104D01*
X176976666Y-46989104D02*
X176929047Y-47131961D01*
X176929047Y-47131961D02*
X176833809Y-47227200D01*
X176833809Y-47227200D02*
X176690952Y-47274819D01*
X176690952Y-47274819D02*
X176595714Y-47274819D01*
X177357619Y-46274819D02*
X177976666Y-46274819D01*
X177976666Y-46274819D02*
X177643333Y-46655771D01*
X177643333Y-46655771D02*
X177786190Y-46655771D01*
X177786190Y-46655771D02*
X177881428Y-46703390D01*
X177881428Y-46703390D02*
X177929047Y-46751009D01*
X177929047Y-46751009D02*
X177976666Y-46846247D01*
X177976666Y-46846247D02*
X177976666Y-47084342D01*
X177976666Y-47084342D02*
X177929047Y-47179580D01*
X177929047Y-47179580D02*
X177881428Y-47227200D01*
X177881428Y-47227200D02*
X177786190Y-47274819D01*
X177786190Y-47274819D02*
X177500476Y-47274819D01*
X177500476Y-47274819D02*
X177405238Y-47227200D01*
X177405238Y-47227200D02*
X177357619Y-47179580D01*
X93047142Y-136584819D02*
X92713809Y-136108628D01*
X92475714Y-136584819D02*
X92475714Y-135584819D01*
X92475714Y-135584819D02*
X92856666Y-135584819D01*
X92856666Y-135584819D02*
X92951904Y-135632438D01*
X92951904Y-135632438D02*
X92999523Y-135680057D01*
X92999523Y-135680057D02*
X93047142Y-135775295D01*
X93047142Y-135775295D02*
X93047142Y-135918152D01*
X93047142Y-135918152D02*
X92999523Y-136013390D01*
X92999523Y-136013390D02*
X92951904Y-136061009D01*
X92951904Y-136061009D02*
X92856666Y-136108628D01*
X92856666Y-136108628D02*
X92475714Y-136108628D01*
X93999523Y-136584819D02*
X93428095Y-136584819D01*
X93713809Y-136584819D02*
X93713809Y-135584819D01*
X93713809Y-135584819D02*
X93618571Y-135727676D01*
X93618571Y-135727676D02*
X93523333Y-135822914D01*
X93523333Y-135822914D02*
X93428095Y-135870533D01*
X94332857Y-135584819D02*
X94951904Y-135584819D01*
X94951904Y-135584819D02*
X94618571Y-135965771D01*
X94618571Y-135965771D02*
X94761428Y-135965771D01*
X94761428Y-135965771D02*
X94856666Y-136013390D01*
X94856666Y-136013390D02*
X94904285Y-136061009D01*
X94904285Y-136061009D02*
X94951904Y-136156247D01*
X94951904Y-136156247D02*
X94951904Y-136394342D01*
X94951904Y-136394342D02*
X94904285Y-136489580D01*
X94904285Y-136489580D02*
X94856666Y-136537200D01*
X94856666Y-136537200D02*
X94761428Y-136584819D01*
X94761428Y-136584819D02*
X94475714Y-136584819D01*
X94475714Y-136584819D02*
X94380476Y-136537200D01*
X94380476Y-136537200D02*
X94332857Y-136489580D01*
X161874761Y-84490057D02*
X161779523Y-84442438D01*
X161779523Y-84442438D02*
X161684285Y-84347200D01*
X161684285Y-84347200D02*
X161541428Y-84204342D01*
X161541428Y-84204342D02*
X161446190Y-84156723D01*
X161446190Y-84156723D02*
X161350952Y-84156723D01*
X161398571Y-84394819D02*
X161303333Y-84347200D01*
X161303333Y-84347200D02*
X161208095Y-84251961D01*
X161208095Y-84251961D02*
X161160476Y-84061485D01*
X161160476Y-84061485D02*
X161160476Y-83728152D01*
X161160476Y-83728152D02*
X161208095Y-83537676D01*
X161208095Y-83537676D02*
X161303333Y-83442438D01*
X161303333Y-83442438D02*
X161398571Y-83394819D01*
X161398571Y-83394819D02*
X161589047Y-83394819D01*
X161589047Y-83394819D02*
X161684285Y-83442438D01*
X161684285Y-83442438D02*
X161779523Y-83537676D01*
X161779523Y-83537676D02*
X161827142Y-83728152D01*
X161827142Y-83728152D02*
X161827142Y-84061485D01*
X161827142Y-84061485D02*
X161779523Y-84251961D01*
X161779523Y-84251961D02*
X161684285Y-84347200D01*
X161684285Y-84347200D02*
X161589047Y-84394819D01*
X161589047Y-84394819D02*
X161398571Y-84394819D01*
X162684285Y-83728152D02*
X162684285Y-84394819D01*
X162446190Y-83347200D02*
X162208095Y-84061485D01*
X162208095Y-84061485D02*
X162827142Y-84061485D01*
X145095476Y-46086419D02*
X145095476Y-46800704D01*
X145095476Y-46800704D02*
X145047857Y-46943561D01*
X145047857Y-46943561D02*
X144952619Y-47038800D01*
X144952619Y-47038800D02*
X144809762Y-47086419D01*
X144809762Y-47086419D02*
X144714524Y-47086419D01*
X146095476Y-47086419D02*
X145524048Y-47086419D01*
X145809762Y-47086419D02*
X145809762Y-46086419D01*
X145809762Y-46086419D02*
X145714524Y-46229276D01*
X145714524Y-46229276D02*
X145619286Y-46324514D01*
X145619286Y-46324514D02*
X145524048Y-46372133D01*
X146714524Y-46086419D02*
X146809762Y-46086419D01*
X146809762Y-46086419D02*
X146905000Y-46134038D01*
X146905000Y-46134038D02*
X146952619Y-46181657D01*
X146952619Y-46181657D02*
X147000238Y-46276895D01*
X147000238Y-46276895D02*
X147047857Y-46467371D01*
X147047857Y-46467371D02*
X147047857Y-46705466D01*
X147047857Y-46705466D02*
X147000238Y-46895942D01*
X147000238Y-46895942D02*
X146952619Y-46991180D01*
X146952619Y-46991180D02*
X146905000Y-47038800D01*
X146905000Y-47038800D02*
X146809762Y-47086419D01*
X146809762Y-47086419D02*
X146714524Y-47086419D01*
X146714524Y-47086419D02*
X146619286Y-47038800D01*
X146619286Y-47038800D02*
X146571667Y-46991180D01*
X146571667Y-46991180D02*
X146524048Y-46895942D01*
X146524048Y-46895942D02*
X146476429Y-46705466D01*
X146476429Y-46705466D02*
X146476429Y-46467371D01*
X146476429Y-46467371D02*
X146524048Y-46276895D01*
X146524048Y-46276895D02*
X146571667Y-46181657D01*
X146571667Y-46181657D02*
X146619286Y-46134038D01*
X146619286Y-46134038D02*
X146714524Y-46086419D01*
X159476666Y-46274819D02*
X159476666Y-46989104D01*
X159476666Y-46989104D02*
X159429047Y-47131961D01*
X159429047Y-47131961D02*
X159333809Y-47227200D01*
X159333809Y-47227200D02*
X159190952Y-47274819D01*
X159190952Y-47274819D02*
X159095714Y-47274819D01*
X159905238Y-46370057D02*
X159952857Y-46322438D01*
X159952857Y-46322438D02*
X160048095Y-46274819D01*
X160048095Y-46274819D02*
X160286190Y-46274819D01*
X160286190Y-46274819D02*
X160381428Y-46322438D01*
X160381428Y-46322438D02*
X160429047Y-46370057D01*
X160429047Y-46370057D02*
X160476666Y-46465295D01*
X160476666Y-46465295D02*
X160476666Y-46560533D01*
X160476666Y-46560533D02*
X160429047Y-46703390D01*
X160429047Y-46703390D02*
X159857619Y-47274819D01*
X159857619Y-47274819D02*
X160476666Y-47274819D01*
X157191666Y-144634819D02*
X157191666Y-145349104D01*
X157191666Y-145349104D02*
X157144047Y-145491961D01*
X157144047Y-145491961D02*
X157048809Y-145587200D01*
X157048809Y-145587200D02*
X156905952Y-145634819D01*
X156905952Y-145634819D02*
X156810714Y-145634819D01*
X158096428Y-144634819D02*
X157905952Y-144634819D01*
X157905952Y-144634819D02*
X157810714Y-144682438D01*
X157810714Y-144682438D02*
X157763095Y-144730057D01*
X157763095Y-144730057D02*
X157667857Y-144872914D01*
X157667857Y-144872914D02*
X157620238Y-145063390D01*
X157620238Y-145063390D02*
X157620238Y-145444342D01*
X157620238Y-145444342D02*
X157667857Y-145539580D01*
X157667857Y-145539580D02*
X157715476Y-145587200D01*
X157715476Y-145587200D02*
X157810714Y-145634819D01*
X157810714Y-145634819D02*
X158001190Y-145634819D01*
X158001190Y-145634819D02*
X158096428Y-145587200D01*
X158096428Y-145587200D02*
X158144047Y-145539580D01*
X158144047Y-145539580D02*
X158191666Y-145444342D01*
X158191666Y-145444342D02*
X158191666Y-145206247D01*
X158191666Y-145206247D02*
X158144047Y-145111009D01*
X158144047Y-145111009D02*
X158096428Y-145063390D01*
X158096428Y-145063390D02*
X158001190Y-145015771D01*
X158001190Y-145015771D02*
X157810714Y-145015771D01*
X157810714Y-145015771D02*
X157715476Y-145063390D01*
X157715476Y-145063390D02*
X157667857Y-145111009D01*
X157667857Y-145111009D02*
X157620238Y-145206247D01*
X197761666Y-152634819D02*
X197761666Y-153349104D01*
X197761666Y-153349104D02*
X197714047Y-153491961D01*
X197714047Y-153491961D02*
X197618809Y-153587200D01*
X197618809Y-153587200D02*
X197475952Y-153634819D01*
X197475952Y-153634819D02*
X197380714Y-153634819D01*
X198380714Y-153063390D02*
X198285476Y-153015771D01*
X198285476Y-153015771D02*
X198237857Y-152968152D01*
X198237857Y-152968152D02*
X198190238Y-152872914D01*
X198190238Y-152872914D02*
X198190238Y-152825295D01*
X198190238Y-152825295D02*
X198237857Y-152730057D01*
X198237857Y-152730057D02*
X198285476Y-152682438D01*
X198285476Y-152682438D02*
X198380714Y-152634819D01*
X198380714Y-152634819D02*
X198571190Y-152634819D01*
X198571190Y-152634819D02*
X198666428Y-152682438D01*
X198666428Y-152682438D02*
X198714047Y-152730057D01*
X198714047Y-152730057D02*
X198761666Y-152825295D01*
X198761666Y-152825295D02*
X198761666Y-152872914D01*
X198761666Y-152872914D02*
X198714047Y-152968152D01*
X198714047Y-152968152D02*
X198666428Y-153015771D01*
X198666428Y-153015771D02*
X198571190Y-153063390D01*
X198571190Y-153063390D02*
X198380714Y-153063390D01*
X198380714Y-153063390D02*
X198285476Y-153111009D01*
X198285476Y-153111009D02*
X198237857Y-153158628D01*
X198237857Y-153158628D02*
X198190238Y-153253866D01*
X198190238Y-153253866D02*
X198190238Y-153444342D01*
X198190238Y-153444342D02*
X198237857Y-153539580D01*
X198237857Y-153539580D02*
X198285476Y-153587200D01*
X198285476Y-153587200D02*
X198380714Y-153634819D01*
X198380714Y-153634819D02*
X198571190Y-153634819D01*
X198571190Y-153634819D02*
X198666428Y-153587200D01*
X198666428Y-153587200D02*
X198714047Y-153539580D01*
X198714047Y-153539580D02*
X198761666Y-153444342D01*
X198761666Y-153444342D02*
X198761666Y-153253866D01*
X198761666Y-153253866D02*
X198714047Y-153158628D01*
X198714047Y-153158628D02*
X198666428Y-153111009D01*
X198666428Y-153111009D02*
X198571190Y-153063390D01*
X214054819Y-104278094D02*
X213054819Y-104278094D01*
X214054819Y-103706666D02*
X213483390Y-104135237D01*
X213054819Y-103706666D02*
X213626247Y-104278094D01*
X214054819Y-102754285D02*
X214054819Y-103325713D01*
X214054819Y-103039999D02*
X213054819Y-103039999D01*
X213054819Y-103039999D02*
X213197676Y-103135237D01*
X213197676Y-103135237D02*
X213292914Y-103230475D01*
X213292914Y-103230475D02*
X213340533Y-103325713D01*
X214454819Y-116811499D02*
X214692914Y-116811499D01*
X214597676Y-117049594D02*
X214692914Y-116811499D01*
X214692914Y-116811499D02*
X214597676Y-116573404D01*
X214883390Y-116954356D02*
X214692914Y-116811499D01*
X214692914Y-116811499D02*
X214883390Y-116668642D01*
X166104819Y-104398094D02*
X165104819Y-104398094D01*
X166104819Y-103826666D02*
X165533390Y-104255237D01*
X165104819Y-103826666D02*
X165676247Y-104398094D01*
X165104819Y-103493332D02*
X165104819Y-102874285D01*
X165104819Y-102874285D02*
X165485771Y-103207618D01*
X165485771Y-103207618D02*
X165485771Y-103064761D01*
X165485771Y-103064761D02*
X165533390Y-102969523D01*
X165533390Y-102969523D02*
X165581009Y-102921904D01*
X165581009Y-102921904D02*
X165676247Y-102874285D01*
X165676247Y-102874285D02*
X165914342Y-102874285D01*
X165914342Y-102874285D02*
X166009580Y-102921904D01*
X166009580Y-102921904D02*
X166057200Y-102969523D01*
X166057200Y-102969523D02*
X166104819Y-103064761D01*
X166104819Y-103064761D02*
X166104819Y-103350475D01*
X166104819Y-103350475D02*
X166057200Y-103445713D01*
X166057200Y-103445713D02*
X166009580Y-103493332D01*
X166504819Y-116931499D02*
X166742914Y-116931499D01*
X166647676Y-117169594D02*
X166742914Y-116931499D01*
X166742914Y-116931499D02*
X166647676Y-116693404D01*
X166933390Y-117074356D02*
X166742914Y-116931499D01*
X166742914Y-116931499D02*
X166933390Y-116788642D01*
X169494761Y-84490057D02*
X169399523Y-84442438D01*
X169399523Y-84442438D02*
X169304285Y-84347200D01*
X169304285Y-84347200D02*
X169161428Y-84204342D01*
X169161428Y-84204342D02*
X169066190Y-84156723D01*
X169066190Y-84156723D02*
X168970952Y-84156723D01*
X169018571Y-84394819D02*
X168923333Y-84347200D01*
X168923333Y-84347200D02*
X168828095Y-84251961D01*
X168828095Y-84251961D02*
X168780476Y-84061485D01*
X168780476Y-84061485D02*
X168780476Y-83728152D01*
X168780476Y-83728152D02*
X168828095Y-83537676D01*
X168828095Y-83537676D02*
X168923333Y-83442438D01*
X168923333Y-83442438D02*
X169018571Y-83394819D01*
X169018571Y-83394819D02*
X169209047Y-83394819D01*
X169209047Y-83394819D02*
X169304285Y-83442438D01*
X169304285Y-83442438D02*
X169399523Y-83537676D01*
X169399523Y-83537676D02*
X169447142Y-83728152D01*
X169447142Y-83728152D02*
X169447142Y-84061485D01*
X169447142Y-84061485D02*
X169399523Y-84251961D01*
X169399523Y-84251961D02*
X169304285Y-84347200D01*
X169304285Y-84347200D02*
X169209047Y-84394819D01*
X169209047Y-84394819D02*
X169018571Y-84394819D01*
X169780476Y-83394819D02*
X170399523Y-83394819D01*
X170399523Y-83394819D02*
X170066190Y-83775771D01*
X170066190Y-83775771D02*
X170209047Y-83775771D01*
X170209047Y-83775771D02*
X170304285Y-83823390D01*
X170304285Y-83823390D02*
X170351904Y-83871009D01*
X170351904Y-83871009D02*
X170399523Y-83966247D01*
X170399523Y-83966247D02*
X170399523Y-84204342D01*
X170399523Y-84204342D02*
X170351904Y-84299580D01*
X170351904Y-84299580D02*
X170304285Y-84347200D01*
X170304285Y-84347200D02*
X170209047Y-84394819D01*
X170209047Y-84394819D02*
X169923333Y-84394819D01*
X169923333Y-84394819D02*
X169828095Y-84347200D01*
X169828095Y-84347200D02*
X169780476Y-84299580D01*
X158484819Y-104398094D02*
X157484819Y-104398094D01*
X158484819Y-103826666D02*
X157913390Y-104255237D01*
X157484819Y-103826666D02*
X158056247Y-104398094D01*
X157818152Y-102969523D02*
X158484819Y-102969523D01*
X157437200Y-103207618D02*
X158151485Y-103445713D01*
X158151485Y-103445713D02*
X158151485Y-102826666D01*
X158884819Y-116931499D02*
X159122914Y-116931499D01*
X159027676Y-117169594D02*
X159122914Y-116931499D01*
X159122914Y-116931499D02*
X159027676Y-116693404D01*
X159313390Y-117074356D02*
X159122914Y-116931499D01*
X159122914Y-116931499D02*
X159313390Y-116788642D01*
X217444761Y-84490057D02*
X217349523Y-84442438D01*
X217349523Y-84442438D02*
X217254285Y-84347200D01*
X217254285Y-84347200D02*
X217111428Y-84204342D01*
X217111428Y-84204342D02*
X217016190Y-84156723D01*
X217016190Y-84156723D02*
X216920952Y-84156723D01*
X216968571Y-84394819D02*
X216873333Y-84347200D01*
X216873333Y-84347200D02*
X216778095Y-84251961D01*
X216778095Y-84251961D02*
X216730476Y-84061485D01*
X216730476Y-84061485D02*
X216730476Y-83728152D01*
X216730476Y-83728152D02*
X216778095Y-83537676D01*
X216778095Y-83537676D02*
X216873333Y-83442438D01*
X216873333Y-83442438D02*
X216968571Y-83394819D01*
X216968571Y-83394819D02*
X217159047Y-83394819D01*
X217159047Y-83394819D02*
X217254285Y-83442438D01*
X217254285Y-83442438D02*
X217349523Y-83537676D01*
X217349523Y-83537676D02*
X217397142Y-83728152D01*
X217397142Y-83728152D02*
X217397142Y-84061485D01*
X217397142Y-84061485D02*
X217349523Y-84251961D01*
X217349523Y-84251961D02*
X217254285Y-84347200D01*
X217254285Y-84347200D02*
X217159047Y-84394819D01*
X217159047Y-84394819D02*
X216968571Y-84394819D01*
X218349523Y-84394819D02*
X217778095Y-84394819D01*
X218063809Y-84394819D02*
X218063809Y-83394819D01*
X218063809Y-83394819D02*
X217968571Y-83537676D01*
X217968571Y-83537676D02*
X217873333Y-83632914D01*
X217873333Y-83632914D02*
X217778095Y-83680533D01*
X105411905Y-111994819D02*
X105411905Y-110994819D01*
X105411905Y-110994819D02*
X105650000Y-110994819D01*
X105650000Y-110994819D02*
X105792857Y-111042438D01*
X105792857Y-111042438D02*
X105888095Y-111137676D01*
X105888095Y-111137676D02*
X105935714Y-111232914D01*
X105935714Y-111232914D02*
X105983333Y-111423390D01*
X105983333Y-111423390D02*
X105983333Y-111566247D01*
X105983333Y-111566247D02*
X105935714Y-111756723D01*
X105935714Y-111756723D02*
X105888095Y-111851961D01*
X105888095Y-111851961D02*
X105792857Y-111947200D01*
X105792857Y-111947200D02*
X105650000Y-111994819D01*
X105650000Y-111994819D02*
X105411905Y-111994819D01*
X106935714Y-111994819D02*
X106364286Y-111994819D01*
X106650000Y-111994819D02*
X106650000Y-110994819D01*
X106650000Y-110994819D02*
X106554762Y-111137676D01*
X106554762Y-111137676D02*
X106459524Y-111232914D01*
X106459524Y-111232914D02*
X106364286Y-111280533D01*
X150592619Y-61318094D02*
X149592619Y-61318094D01*
X150592619Y-60746666D02*
X150021190Y-61175237D01*
X149592619Y-60746666D02*
X150164047Y-61318094D01*
X149592619Y-59841904D02*
X149592619Y-60318094D01*
X149592619Y-60318094D02*
X150068809Y-60365713D01*
X150068809Y-60365713D02*
X150021190Y-60318094D01*
X150021190Y-60318094D02*
X149973571Y-60222856D01*
X149973571Y-60222856D02*
X149973571Y-59984761D01*
X149973571Y-59984761D02*
X150021190Y-59889523D01*
X150021190Y-59889523D02*
X150068809Y-59841904D01*
X150068809Y-59841904D02*
X150164047Y-59794285D01*
X150164047Y-59794285D02*
X150402142Y-59794285D01*
X150402142Y-59794285D02*
X150497380Y-59841904D01*
X150497380Y-59841904D02*
X150545000Y-59889523D01*
X150545000Y-59889523D02*
X150592619Y-59984761D01*
X150592619Y-59984761D02*
X150592619Y-60222856D01*
X150592619Y-60222856D02*
X150545000Y-60318094D01*
X150545000Y-60318094D02*
X150497380Y-60365713D01*
X151264819Y-116811499D02*
X151502914Y-116811499D01*
X151407676Y-117049594D02*
X151502914Y-116811499D01*
X151502914Y-116811499D02*
X151407676Y-116573404D01*
X151693390Y-116954356D02*
X151502914Y-116811499D01*
X151502914Y-116811499D02*
X151693390Y-116668642D01*
X200784819Y-77556666D02*
X200308628Y-77889999D01*
X200784819Y-78128094D02*
X199784819Y-78128094D01*
X199784819Y-78128094D02*
X199784819Y-77747142D01*
X199784819Y-77747142D02*
X199832438Y-77651904D01*
X199832438Y-77651904D02*
X199880057Y-77604285D01*
X199880057Y-77604285D02*
X199975295Y-77556666D01*
X199975295Y-77556666D02*
X200118152Y-77556666D01*
X200118152Y-77556666D02*
X200213390Y-77604285D01*
X200213390Y-77604285D02*
X200261009Y-77651904D01*
X200261009Y-77651904D02*
X200308628Y-77747142D01*
X200308628Y-77747142D02*
X200308628Y-78128094D01*
X200784819Y-76604285D02*
X200784819Y-77175713D01*
X200784819Y-76889999D02*
X199784819Y-76889999D01*
X199784819Y-76889999D02*
X199927676Y-76985237D01*
X199927676Y-76985237D02*
X200022914Y-77080475D01*
X200022914Y-77080475D02*
X200070533Y-77175713D01*
X93047142Y-144584819D02*
X92713809Y-144108628D01*
X92475714Y-144584819D02*
X92475714Y-143584819D01*
X92475714Y-143584819D02*
X92856666Y-143584819D01*
X92856666Y-143584819D02*
X92951904Y-143632438D01*
X92951904Y-143632438D02*
X92999523Y-143680057D01*
X92999523Y-143680057D02*
X93047142Y-143775295D01*
X93047142Y-143775295D02*
X93047142Y-143918152D01*
X93047142Y-143918152D02*
X92999523Y-144013390D01*
X92999523Y-144013390D02*
X92951904Y-144061009D01*
X92951904Y-144061009D02*
X92856666Y-144108628D01*
X92856666Y-144108628D02*
X92475714Y-144108628D01*
X93999523Y-144584819D02*
X93428095Y-144584819D01*
X93713809Y-144584819D02*
X93713809Y-143584819D01*
X93713809Y-143584819D02*
X93618571Y-143727676D01*
X93618571Y-143727676D02*
X93523333Y-143822914D01*
X93523333Y-143822914D02*
X93428095Y-143870533D01*
X94856666Y-143918152D02*
X94856666Y-144584819D01*
X94618571Y-143537200D02*
X94380476Y-144251485D01*
X94380476Y-144251485D02*
X94999523Y-144251485D01*
X171144819Y-77556666D02*
X170668628Y-77889999D01*
X171144819Y-78128094D02*
X170144819Y-78128094D01*
X170144819Y-78128094D02*
X170144819Y-77747142D01*
X170144819Y-77747142D02*
X170192438Y-77651904D01*
X170192438Y-77651904D02*
X170240057Y-77604285D01*
X170240057Y-77604285D02*
X170335295Y-77556666D01*
X170335295Y-77556666D02*
X170478152Y-77556666D01*
X170478152Y-77556666D02*
X170573390Y-77604285D01*
X170573390Y-77604285D02*
X170621009Y-77651904D01*
X170621009Y-77651904D02*
X170668628Y-77747142D01*
X170668628Y-77747142D02*
X170668628Y-78128094D01*
X170240057Y-77175713D02*
X170192438Y-77128094D01*
X170192438Y-77128094D02*
X170144819Y-77032856D01*
X170144819Y-77032856D02*
X170144819Y-76794761D01*
X170144819Y-76794761D02*
X170192438Y-76699523D01*
X170192438Y-76699523D02*
X170240057Y-76651904D01*
X170240057Y-76651904D02*
X170335295Y-76604285D01*
X170335295Y-76604285D02*
X170430533Y-76604285D01*
X170430533Y-76604285D02*
X170573390Y-76651904D01*
X170573390Y-76651904D02*
X171144819Y-77223332D01*
X171144819Y-77223332D02*
X171144819Y-76604285D01*
X137103333Y-72534819D02*
X136770000Y-72058628D01*
X136531905Y-72534819D02*
X136531905Y-71534819D01*
X136531905Y-71534819D02*
X136912857Y-71534819D01*
X136912857Y-71534819D02*
X137008095Y-71582438D01*
X137008095Y-71582438D02*
X137055714Y-71630057D01*
X137055714Y-71630057D02*
X137103333Y-71725295D01*
X137103333Y-71725295D02*
X137103333Y-71868152D01*
X137103333Y-71868152D02*
X137055714Y-71963390D01*
X137055714Y-71963390D02*
X137008095Y-72011009D01*
X137008095Y-72011009D02*
X136912857Y-72058628D01*
X136912857Y-72058628D02*
X136531905Y-72058628D01*
X137436667Y-71534819D02*
X138103333Y-71534819D01*
X138103333Y-71534819D02*
X137674762Y-72534819D01*
X178143333Y-60084819D02*
X177810000Y-59608628D01*
X177571905Y-60084819D02*
X177571905Y-59084819D01*
X177571905Y-59084819D02*
X177952857Y-59084819D01*
X177952857Y-59084819D02*
X178048095Y-59132438D01*
X178048095Y-59132438D02*
X178095714Y-59180057D01*
X178095714Y-59180057D02*
X178143333Y-59275295D01*
X178143333Y-59275295D02*
X178143333Y-59418152D01*
X178143333Y-59418152D02*
X178095714Y-59513390D01*
X178095714Y-59513390D02*
X178048095Y-59561009D01*
X178048095Y-59561009D02*
X177952857Y-59608628D01*
X177952857Y-59608628D02*
X177571905Y-59608628D01*
X178714762Y-59513390D02*
X178619524Y-59465771D01*
X178619524Y-59465771D02*
X178571905Y-59418152D01*
X178571905Y-59418152D02*
X178524286Y-59322914D01*
X178524286Y-59322914D02*
X178524286Y-59275295D01*
X178524286Y-59275295D02*
X178571905Y-59180057D01*
X178571905Y-59180057D02*
X178619524Y-59132438D01*
X178619524Y-59132438D02*
X178714762Y-59084819D01*
X178714762Y-59084819D02*
X178905238Y-59084819D01*
X178905238Y-59084819D02*
X179000476Y-59132438D01*
X179000476Y-59132438D02*
X179048095Y-59180057D01*
X179048095Y-59180057D02*
X179095714Y-59275295D01*
X179095714Y-59275295D02*
X179095714Y-59322914D01*
X179095714Y-59322914D02*
X179048095Y-59418152D01*
X179048095Y-59418152D02*
X179000476Y-59465771D01*
X179000476Y-59465771D02*
X178905238Y-59513390D01*
X178905238Y-59513390D02*
X178714762Y-59513390D01*
X178714762Y-59513390D02*
X178619524Y-59561009D01*
X178619524Y-59561009D02*
X178571905Y-59608628D01*
X178571905Y-59608628D02*
X178524286Y-59703866D01*
X178524286Y-59703866D02*
X178524286Y-59894342D01*
X178524286Y-59894342D02*
X178571905Y-59989580D01*
X178571905Y-59989580D02*
X178619524Y-60037200D01*
X178619524Y-60037200D02*
X178714762Y-60084819D01*
X178714762Y-60084819D02*
X178905238Y-60084819D01*
X178905238Y-60084819D02*
X179000476Y-60037200D01*
X179000476Y-60037200D02*
X179048095Y-59989580D01*
X179048095Y-59989580D02*
X179095714Y-59894342D01*
X179095714Y-59894342D02*
X179095714Y-59703866D01*
X179095714Y-59703866D02*
X179048095Y-59608628D01*
X179048095Y-59608628D02*
X179000476Y-59561009D01*
X179000476Y-59561009D02*
X178905238Y-59513390D01*
X93047142Y-120584819D02*
X92713809Y-120108628D01*
X92475714Y-120584819D02*
X92475714Y-119584819D01*
X92475714Y-119584819D02*
X92856666Y-119584819D01*
X92856666Y-119584819D02*
X92951904Y-119632438D01*
X92951904Y-119632438D02*
X92999523Y-119680057D01*
X92999523Y-119680057D02*
X93047142Y-119775295D01*
X93047142Y-119775295D02*
X93047142Y-119918152D01*
X93047142Y-119918152D02*
X92999523Y-120013390D01*
X92999523Y-120013390D02*
X92951904Y-120061009D01*
X92951904Y-120061009D02*
X92856666Y-120108628D01*
X92856666Y-120108628D02*
X92475714Y-120108628D01*
X93999523Y-120584819D02*
X93428095Y-120584819D01*
X93713809Y-120584819D02*
X93713809Y-119584819D01*
X93713809Y-119584819D02*
X93618571Y-119727676D01*
X93618571Y-119727676D02*
X93523333Y-119822914D01*
X93523333Y-119822914D02*
X93428095Y-119870533D01*
X94951904Y-120584819D02*
X94380476Y-120584819D01*
X94666190Y-120584819D02*
X94666190Y-119584819D01*
X94666190Y-119584819D02*
X94570952Y-119727676D01*
X94570952Y-119727676D02*
X94475714Y-119822914D01*
X94475714Y-119822914D02*
X94380476Y-119870533D01*
X151164819Y-77556666D02*
X150688628Y-77889999D01*
X151164819Y-78128094D02*
X150164819Y-78128094D01*
X150164819Y-78128094D02*
X150164819Y-77747142D01*
X150164819Y-77747142D02*
X150212438Y-77651904D01*
X150212438Y-77651904D02*
X150260057Y-77604285D01*
X150260057Y-77604285D02*
X150355295Y-77556666D01*
X150355295Y-77556666D02*
X150498152Y-77556666D01*
X150498152Y-77556666D02*
X150593390Y-77604285D01*
X150593390Y-77604285D02*
X150641009Y-77651904D01*
X150641009Y-77651904D02*
X150688628Y-77747142D01*
X150688628Y-77747142D02*
X150688628Y-78128094D01*
X150498152Y-76699523D02*
X151164819Y-76699523D01*
X150117200Y-76937618D02*
X150831485Y-77175713D01*
X150831485Y-77175713D02*
X150831485Y-76556666D01*
X158784819Y-77556666D02*
X158308628Y-77889999D01*
X158784819Y-78128094D02*
X157784819Y-78128094D01*
X157784819Y-78128094D02*
X157784819Y-77747142D01*
X157784819Y-77747142D02*
X157832438Y-77651904D01*
X157832438Y-77651904D02*
X157880057Y-77604285D01*
X157880057Y-77604285D02*
X157975295Y-77556666D01*
X157975295Y-77556666D02*
X158118152Y-77556666D01*
X158118152Y-77556666D02*
X158213390Y-77604285D01*
X158213390Y-77604285D02*
X158261009Y-77651904D01*
X158261009Y-77651904D02*
X158308628Y-77747142D01*
X158308628Y-77747142D02*
X158308628Y-78128094D01*
X157784819Y-77223332D02*
X157784819Y-76604285D01*
X157784819Y-76604285D02*
X158165771Y-76937618D01*
X158165771Y-76937618D02*
X158165771Y-76794761D01*
X158165771Y-76794761D02*
X158213390Y-76699523D01*
X158213390Y-76699523D02*
X158261009Y-76651904D01*
X158261009Y-76651904D02*
X158356247Y-76604285D01*
X158356247Y-76604285D02*
X158594342Y-76604285D01*
X158594342Y-76604285D02*
X158689580Y-76651904D01*
X158689580Y-76651904D02*
X158737200Y-76699523D01*
X158737200Y-76699523D02*
X158784819Y-76794761D01*
X158784819Y-76794761D02*
X158784819Y-77080475D01*
X158784819Y-77080475D02*
X158737200Y-77175713D01*
X158737200Y-77175713D02*
X158689580Y-77223332D01*
X93047142Y-112584819D02*
X92713809Y-112108628D01*
X92475714Y-112584819D02*
X92475714Y-111584819D01*
X92475714Y-111584819D02*
X92856666Y-111584819D01*
X92856666Y-111584819D02*
X92951904Y-111632438D01*
X92951904Y-111632438D02*
X92999523Y-111680057D01*
X92999523Y-111680057D02*
X93047142Y-111775295D01*
X93047142Y-111775295D02*
X93047142Y-111918152D01*
X93047142Y-111918152D02*
X92999523Y-112013390D01*
X92999523Y-112013390D02*
X92951904Y-112061009D01*
X92951904Y-112061009D02*
X92856666Y-112108628D01*
X92856666Y-112108628D02*
X92475714Y-112108628D01*
X93999523Y-112584819D02*
X93428095Y-112584819D01*
X93713809Y-112584819D02*
X93713809Y-111584819D01*
X93713809Y-111584819D02*
X93618571Y-111727676D01*
X93618571Y-111727676D02*
X93523333Y-111822914D01*
X93523333Y-111822914D02*
X93428095Y-111870533D01*
X94618571Y-111584819D02*
X94713809Y-111584819D01*
X94713809Y-111584819D02*
X94809047Y-111632438D01*
X94809047Y-111632438D02*
X94856666Y-111680057D01*
X94856666Y-111680057D02*
X94904285Y-111775295D01*
X94904285Y-111775295D02*
X94951904Y-111965771D01*
X94951904Y-111965771D02*
X94951904Y-112203866D01*
X94951904Y-112203866D02*
X94904285Y-112394342D01*
X94904285Y-112394342D02*
X94856666Y-112489580D01*
X94856666Y-112489580D02*
X94809047Y-112537200D01*
X94809047Y-112537200D02*
X94713809Y-112584819D01*
X94713809Y-112584819D02*
X94618571Y-112584819D01*
X94618571Y-112584819D02*
X94523333Y-112537200D01*
X94523333Y-112537200D02*
X94475714Y-112489580D01*
X94475714Y-112489580D02*
X94428095Y-112394342D01*
X94428095Y-112394342D02*
X94380476Y-112203866D01*
X94380476Y-112203866D02*
X94380476Y-111965771D01*
X94380476Y-111965771D02*
X94428095Y-111775295D01*
X94428095Y-111775295D02*
X94475714Y-111680057D01*
X94475714Y-111680057D02*
X94523333Y-111632438D01*
X94523333Y-111632438D02*
X94618571Y-111584819D01*
X205319819Y-70809523D02*
X206034104Y-70809523D01*
X206034104Y-70809523D02*
X206176961Y-70857142D01*
X206176961Y-70857142D02*
X206272200Y-70952380D01*
X206272200Y-70952380D02*
X206319819Y-71095237D01*
X206319819Y-71095237D02*
X206319819Y-71190475D01*
X206319819Y-69809523D02*
X206319819Y-70380951D01*
X206319819Y-70095237D02*
X205319819Y-70095237D01*
X205319819Y-70095237D02*
X205462676Y-70190475D01*
X205462676Y-70190475D02*
X205557914Y-70285713D01*
X205557914Y-70285713D02*
X205605533Y-70380951D01*
X205415057Y-69428570D02*
X205367438Y-69380951D01*
X205367438Y-69380951D02*
X205319819Y-69285713D01*
X205319819Y-69285713D02*
X205319819Y-69047618D01*
X205319819Y-69047618D02*
X205367438Y-68952380D01*
X205367438Y-68952380D02*
X205415057Y-68904761D01*
X205415057Y-68904761D02*
X205510295Y-68857142D01*
X205510295Y-68857142D02*
X205605533Y-68857142D01*
X205605533Y-68857142D02*
X205748390Y-68904761D01*
X205748390Y-68904761D02*
X206319819Y-69476189D01*
X206319819Y-69476189D02*
X206319819Y-68857142D01*
X209761666Y-152634819D02*
X209761666Y-153349104D01*
X209761666Y-153349104D02*
X209714047Y-153491961D01*
X209714047Y-153491961D02*
X209618809Y-153587200D01*
X209618809Y-153587200D02*
X209475952Y-153634819D01*
X209475952Y-153634819D02*
X209380714Y-153634819D01*
X210761666Y-153634819D02*
X210190238Y-153634819D01*
X210475952Y-153634819D02*
X210475952Y-152634819D01*
X210475952Y-152634819D02*
X210380714Y-152777676D01*
X210380714Y-152777676D02*
X210285476Y-152872914D01*
X210285476Y-152872914D02*
X210190238Y-152920533D01*
X154254761Y-84490057D02*
X154159523Y-84442438D01*
X154159523Y-84442438D02*
X154064285Y-84347200D01*
X154064285Y-84347200D02*
X153921428Y-84204342D01*
X153921428Y-84204342D02*
X153826190Y-84156723D01*
X153826190Y-84156723D02*
X153730952Y-84156723D01*
X153778571Y-84394819D02*
X153683333Y-84347200D01*
X153683333Y-84347200D02*
X153588095Y-84251961D01*
X153588095Y-84251961D02*
X153540476Y-84061485D01*
X153540476Y-84061485D02*
X153540476Y-83728152D01*
X153540476Y-83728152D02*
X153588095Y-83537676D01*
X153588095Y-83537676D02*
X153683333Y-83442438D01*
X153683333Y-83442438D02*
X153778571Y-83394819D01*
X153778571Y-83394819D02*
X153969047Y-83394819D01*
X153969047Y-83394819D02*
X154064285Y-83442438D01*
X154064285Y-83442438D02*
X154159523Y-83537676D01*
X154159523Y-83537676D02*
X154207142Y-83728152D01*
X154207142Y-83728152D02*
X154207142Y-84061485D01*
X154207142Y-84061485D02*
X154159523Y-84251961D01*
X154159523Y-84251961D02*
X154064285Y-84347200D01*
X154064285Y-84347200D02*
X153969047Y-84394819D01*
X153969047Y-84394819D02*
X153778571Y-84394819D01*
X155111904Y-83394819D02*
X154635714Y-83394819D01*
X154635714Y-83394819D02*
X154588095Y-83871009D01*
X154588095Y-83871009D02*
X154635714Y-83823390D01*
X154635714Y-83823390D02*
X154730952Y-83775771D01*
X154730952Y-83775771D02*
X154969047Y-83775771D01*
X154969047Y-83775771D02*
X155064285Y-83823390D01*
X155064285Y-83823390D02*
X155111904Y-83871009D01*
X155111904Y-83871009D02*
X155159523Y-83966247D01*
X155159523Y-83966247D02*
X155159523Y-84204342D01*
X155159523Y-84204342D02*
X155111904Y-84299580D01*
X155111904Y-84299580D02*
X155064285Y-84347200D01*
X155064285Y-84347200D02*
X154969047Y-84394819D01*
X154969047Y-84394819D02*
X154730952Y-84394819D01*
X154730952Y-84394819D02*
X154635714Y-84347200D01*
X154635714Y-84347200D02*
X154588095Y-84299580D01*
X105411905Y-135994819D02*
X105411905Y-134994819D01*
X105411905Y-134994819D02*
X105650000Y-134994819D01*
X105650000Y-134994819D02*
X105792857Y-135042438D01*
X105792857Y-135042438D02*
X105888095Y-135137676D01*
X105888095Y-135137676D02*
X105935714Y-135232914D01*
X105935714Y-135232914D02*
X105983333Y-135423390D01*
X105983333Y-135423390D02*
X105983333Y-135566247D01*
X105983333Y-135566247D02*
X105935714Y-135756723D01*
X105935714Y-135756723D02*
X105888095Y-135851961D01*
X105888095Y-135851961D02*
X105792857Y-135947200D01*
X105792857Y-135947200D02*
X105650000Y-135994819D01*
X105650000Y-135994819D02*
X105411905Y-135994819D01*
X106840476Y-135328152D02*
X106840476Y-135994819D01*
X106602381Y-134947200D02*
X106364286Y-135661485D01*
X106364286Y-135661485D02*
X106983333Y-135661485D01*
X93047142Y-128584819D02*
X92713809Y-128108628D01*
X92475714Y-128584819D02*
X92475714Y-127584819D01*
X92475714Y-127584819D02*
X92856666Y-127584819D01*
X92856666Y-127584819D02*
X92951904Y-127632438D01*
X92951904Y-127632438D02*
X92999523Y-127680057D01*
X92999523Y-127680057D02*
X93047142Y-127775295D01*
X93047142Y-127775295D02*
X93047142Y-127918152D01*
X93047142Y-127918152D02*
X92999523Y-128013390D01*
X92999523Y-128013390D02*
X92951904Y-128061009D01*
X92951904Y-128061009D02*
X92856666Y-128108628D01*
X92856666Y-128108628D02*
X92475714Y-128108628D01*
X93999523Y-128584819D02*
X93428095Y-128584819D01*
X93713809Y-128584819D02*
X93713809Y-127584819D01*
X93713809Y-127584819D02*
X93618571Y-127727676D01*
X93618571Y-127727676D02*
X93523333Y-127822914D01*
X93523333Y-127822914D02*
X93428095Y-127870533D01*
X94380476Y-127680057D02*
X94428095Y-127632438D01*
X94428095Y-127632438D02*
X94523333Y-127584819D01*
X94523333Y-127584819D02*
X94761428Y-127584819D01*
X94761428Y-127584819D02*
X94856666Y-127632438D01*
X94856666Y-127632438D02*
X94904285Y-127680057D01*
X94904285Y-127680057D02*
X94951904Y-127775295D01*
X94951904Y-127775295D02*
X94951904Y-127870533D01*
X94951904Y-127870533D02*
X94904285Y-128013390D01*
X94904285Y-128013390D02*
X94332857Y-128584819D01*
X94332857Y-128584819D02*
X94951904Y-128584819D01*
X105411905Y-127994819D02*
X105411905Y-126994819D01*
X105411905Y-126994819D02*
X105650000Y-126994819D01*
X105650000Y-126994819D02*
X105792857Y-127042438D01*
X105792857Y-127042438D02*
X105888095Y-127137676D01*
X105888095Y-127137676D02*
X105935714Y-127232914D01*
X105935714Y-127232914D02*
X105983333Y-127423390D01*
X105983333Y-127423390D02*
X105983333Y-127566247D01*
X105983333Y-127566247D02*
X105935714Y-127756723D01*
X105935714Y-127756723D02*
X105888095Y-127851961D01*
X105888095Y-127851961D02*
X105792857Y-127947200D01*
X105792857Y-127947200D02*
X105650000Y-127994819D01*
X105650000Y-127994819D02*
X105411905Y-127994819D01*
X106316667Y-126994819D02*
X106935714Y-126994819D01*
X106935714Y-126994819D02*
X106602381Y-127375771D01*
X106602381Y-127375771D02*
X106745238Y-127375771D01*
X106745238Y-127375771D02*
X106840476Y-127423390D01*
X106840476Y-127423390D02*
X106888095Y-127471009D01*
X106888095Y-127471009D02*
X106935714Y-127566247D01*
X106935714Y-127566247D02*
X106935714Y-127804342D01*
X106935714Y-127804342D02*
X106888095Y-127899580D01*
X106888095Y-127899580D02*
X106840476Y-127947200D01*
X106840476Y-127947200D02*
X106745238Y-127994819D01*
X106745238Y-127994819D02*
X106459524Y-127994819D01*
X106459524Y-127994819D02*
X106364286Y-127947200D01*
X106364286Y-127947200D02*
X106316667Y-127899580D01*
X220584819Y-77556666D02*
X220108628Y-77889999D01*
X220584819Y-78128094D02*
X219584819Y-78128094D01*
X219584819Y-78128094D02*
X219584819Y-77747142D01*
X219584819Y-77747142D02*
X219632438Y-77651904D01*
X219632438Y-77651904D02*
X219680057Y-77604285D01*
X219680057Y-77604285D02*
X219775295Y-77556666D01*
X219775295Y-77556666D02*
X219918152Y-77556666D01*
X219918152Y-77556666D02*
X220013390Y-77604285D01*
X220013390Y-77604285D02*
X220061009Y-77651904D01*
X220061009Y-77651904D02*
X220108628Y-77747142D01*
X220108628Y-77747142D02*
X220108628Y-78128094D01*
X219584819Y-76699523D02*
X219584819Y-76889999D01*
X219584819Y-76889999D02*
X219632438Y-76985237D01*
X219632438Y-76985237D02*
X219680057Y-77032856D01*
X219680057Y-77032856D02*
X219822914Y-77128094D01*
X219822914Y-77128094D02*
X220013390Y-77175713D01*
X220013390Y-77175713D02*
X220394342Y-77175713D01*
X220394342Y-77175713D02*
X220489580Y-77128094D01*
X220489580Y-77128094D02*
X220537200Y-77080475D01*
X220537200Y-77080475D02*
X220584819Y-76985237D01*
X220584819Y-76985237D02*
X220584819Y-76794761D01*
X220584819Y-76794761D02*
X220537200Y-76699523D01*
X220537200Y-76699523D02*
X220489580Y-76651904D01*
X220489580Y-76651904D02*
X220394342Y-76604285D01*
X220394342Y-76604285D02*
X220156247Y-76604285D01*
X220156247Y-76604285D02*
X220061009Y-76651904D01*
X220061009Y-76651904D02*
X220013390Y-76699523D01*
X220013390Y-76699523D02*
X219965771Y-76794761D01*
X219965771Y-76794761D02*
X219965771Y-76985237D01*
X219965771Y-76985237D02*
X220013390Y-77080475D01*
X220013390Y-77080475D02*
X220061009Y-77128094D01*
X220061009Y-77128094D02*
X220156247Y-77175713D01*
X128191666Y-46081219D02*
X128191666Y-46795504D01*
X128191666Y-46795504D02*
X128144047Y-46938361D01*
X128144047Y-46938361D02*
X128048809Y-47033600D01*
X128048809Y-47033600D02*
X127905952Y-47081219D01*
X127905952Y-47081219D02*
X127810714Y-47081219D01*
X129144047Y-46081219D02*
X128667857Y-46081219D01*
X128667857Y-46081219D02*
X128620238Y-46557409D01*
X128620238Y-46557409D02*
X128667857Y-46509790D01*
X128667857Y-46509790D02*
X128763095Y-46462171D01*
X128763095Y-46462171D02*
X129001190Y-46462171D01*
X129001190Y-46462171D02*
X129096428Y-46509790D01*
X129096428Y-46509790D02*
X129144047Y-46557409D01*
X129144047Y-46557409D02*
X129191666Y-46652647D01*
X129191666Y-46652647D02*
X129191666Y-46890742D01*
X129191666Y-46890742D02*
X129144047Y-46985980D01*
X129144047Y-46985980D02*
X129096428Y-47033600D01*
X129096428Y-47033600D02*
X129001190Y-47081219D01*
X129001190Y-47081219D02*
X128763095Y-47081219D01*
X128763095Y-47081219D02*
X128667857Y-47033600D01*
X128667857Y-47033600D02*
X128620238Y-46985980D01*
%TO.C,D2*%
D11*
X104590000Y-121264000D02*
X104590000Y-121420000D01*
X104590000Y-123580000D02*
X104590000Y-123736000D01*
X104590000Y-121264484D02*
G75*
G02*
X107821437Y-121420000I1560000J-1235516D01*
G01*
X105109039Y-121420000D02*
G75*
G02*
X107190961Y-121420000I1040961J-1080000D01*
G01*
X107190961Y-123580000D02*
G75*
G02*
X105109039Y-123580000I-1040961J1080000D01*
G01*
X107821437Y-123580000D02*
G75*
G02*
X104590000Y-123735516I-1671437J1080000D01*
G01*
%TO.C,J9*%
X217670000Y-154180000D02*
X225520000Y-154180000D01*
X217670000Y-161720000D02*
X217670000Y-154180000D01*
X219390000Y-161720000D02*
X217670000Y-161720000D01*
X225520000Y-154180000D02*
X225520000Y-161720000D01*
X225520000Y-161720000D02*
X219990000Y-161720000D01*
X219690000Y-161720000D02*
X220130000Y-162330000D01*
X219250000Y-162330000D01*
X219690000Y-161720000D01*
G36*
X220130000Y-162330000D02*
G01*
X219250000Y-162330000D01*
X219690000Y-161720000D01*
X220130000Y-162330000D01*
G37*
%TO.C,R9*%
X155040000Y-60630000D02*
X161580000Y-60630000D01*
X155040000Y-60960000D02*
X155040000Y-60630000D01*
X155040000Y-63040000D02*
X155040000Y-63370000D01*
X155040000Y-63370000D02*
X161580000Y-63370000D01*
X161580000Y-60630000D02*
X161580000Y-60960000D01*
X161580000Y-63370000D02*
X161580000Y-63040000D01*
%TO.C,J7*%
X176480000Y-146180000D02*
X191950000Y-146180000D01*
X176480000Y-153720000D02*
X176480000Y-146180000D01*
X178200000Y-153720000D02*
X176480000Y-153720000D01*
X191950000Y-146180000D02*
X191950000Y-153720000D01*
X191950000Y-153720000D02*
X178800000Y-153720000D01*
X178500000Y-153720000D02*
X178940000Y-154330000D01*
X178060000Y-154330000D01*
X178500000Y-153720000D01*
G36*
X178940000Y-154330000D02*
G01*
X178060000Y-154330000D01*
X178500000Y-153720000D01*
X178940000Y-154330000D01*
G37*
%TO.C,Q2*%
X202170000Y-89350000D02*
X205770000Y-89350000D01*
X202131522Y-89338478D02*
G75*
G02*
X203970000Y-84899999I1838478J1838478D01*
G01*
X203970000Y-84900000D02*
G75*
G02*
X205808478Y-89338478I0J-2600000D01*
G01*
%TO.C,J4*%
X92613400Y-38087000D02*
X113383400Y-38087000D01*
X92613400Y-45627000D02*
X92613400Y-38087000D01*
X113983400Y-38087000D02*
X115703400Y-38087000D01*
X115703400Y-38087000D02*
X115703400Y-45627000D01*
X115703400Y-45627000D02*
X92613400Y-45627000D01*
X113683400Y-38087000D02*
X113243400Y-37477000D01*
X114123400Y-37477000D01*
X113683400Y-38087000D01*
G36*
X113683400Y-38087000D02*
G01*
X113243400Y-37477000D01*
X114123400Y-37477000D01*
X113683400Y-38087000D01*
G37*
%TO.C,D5*%
X104590000Y-145264000D02*
X104590000Y-145420000D01*
X104590000Y-147580000D02*
X104590000Y-147736000D01*
X104590000Y-145264484D02*
G75*
G02*
X107821437Y-145420000I1560000J-1235516D01*
G01*
X105109039Y-145420000D02*
G75*
G02*
X107190961Y-145420000I1040961J-1080000D01*
G01*
X107190961Y-147580000D02*
G75*
G02*
X105109039Y-147580000I-1040961J1080000D01*
G01*
X107821437Y-147580000D02*
G75*
G02*
X104590000Y-147735516I-1671437J1080000D01*
G01*
%TO.C,J11*%
D12*
X127200000Y-113700000D02*
X131000000Y-113700000D01*
X127200000Y-138300000D02*
X127200000Y-113700000D01*
X127200000Y-138300000D02*
X131000000Y-138300000D01*
X136800000Y-113700000D02*
X133000000Y-113700000D01*
X136800000Y-113700000D02*
X136800000Y-138300000D01*
X136800000Y-138300000D02*
X133000000Y-138300000D01*
%TO.C,R5*%
D11*
X136920000Y-70000000D02*
X137540000Y-70000000D01*
X136920000Y-70000000D02*
G75*
G02*
X135080000Y-70000000I-920000J0D01*
G01*
X135080000Y-70000000D02*
G75*
G02*
X136920000Y-70000000I920000J0D01*
G01*
%TO.C,K2*%
D13*
X197147100Y-91277500D02*
X197147100Y-116042500D01*
X197147100Y-116042500D02*
X202912900Y-116042500D01*
X202912900Y-91277500D02*
X197147100Y-91277500D01*
X202912900Y-116042500D02*
X202912900Y-91277500D01*
%TO.C,J3*%
D11*
X171480000Y-38280000D02*
X180820000Y-38280000D01*
X171480000Y-45820000D02*
X171480000Y-38280000D01*
X181420000Y-38280000D02*
X183140000Y-38280000D01*
X183140000Y-38280000D02*
X183140000Y-45820000D01*
X183140000Y-45820000D02*
X171480000Y-45820000D01*
X181120000Y-38280000D02*
X180680000Y-37670000D01*
X181560000Y-37670000D01*
X181120000Y-38280000D01*
G36*
X181120000Y-38280000D02*
G01*
X180680000Y-37670000D01*
X181560000Y-37670000D01*
X181120000Y-38280000D01*
G37*
%TO.C,R13*%
X90420000Y-137130000D02*
X96960000Y-137130000D01*
X90420000Y-137460000D02*
X90420000Y-137130000D01*
X90420000Y-139540000D02*
X90420000Y-139870000D01*
X90420000Y-139870000D02*
X96960000Y-139870000D01*
X96960000Y-137130000D02*
X96960000Y-137460000D01*
X96960000Y-139870000D02*
X96960000Y-139540000D01*
%TO.C,Q4*%
X160170000Y-89350000D02*
X163770000Y-89350000D01*
X160131522Y-89338478D02*
G75*
G02*
X161970000Y-84899999I1838478J1838478D01*
G01*
X161970000Y-84900000D02*
G75*
G02*
X163808478Y-89338478I0J-2600000D01*
G01*
%TO.C,J10*%
X141980000Y-38091600D02*
X147510000Y-38091600D01*
X141980000Y-45631600D02*
X141980000Y-38091600D01*
X148110000Y-38091600D02*
X149830000Y-38091600D01*
X149830000Y-38091600D02*
X149830000Y-45631600D01*
X149830000Y-45631600D02*
X141980000Y-45631600D01*
X147810000Y-38091600D02*
X147370000Y-37481600D01*
X148250000Y-37481600D01*
X147810000Y-38091600D01*
G36*
X147810000Y-38091600D02*
G01*
X147370000Y-37481600D01*
X148250000Y-37481600D01*
X147810000Y-38091600D01*
G37*
%TO.C,J2*%
X153980000Y-38280000D02*
X163320000Y-38280000D01*
X153980000Y-45820000D02*
X153980000Y-38280000D01*
X163920000Y-38280000D02*
X165640000Y-38280000D01*
X165640000Y-38280000D02*
X165640000Y-45820000D01*
X165640000Y-45820000D02*
X153980000Y-45820000D01*
X163620000Y-38280000D02*
X163180000Y-37670000D01*
X164060000Y-37670000D01*
X163620000Y-38280000D01*
G36*
X163620000Y-38280000D02*
G01*
X163180000Y-37670000D01*
X164060000Y-37670000D01*
X163620000Y-38280000D01*
G37*
%TO.C,J6*%
X145980000Y-146180000D02*
X169070000Y-146180000D01*
X145980000Y-153720000D02*
X145980000Y-146180000D01*
X147700000Y-153720000D02*
X145980000Y-153720000D01*
X169070000Y-146180000D02*
X169070000Y-153720000D01*
X169070000Y-153720000D02*
X148300000Y-153720000D01*
X148000000Y-153720000D02*
X148440000Y-154330000D01*
X147560000Y-154330000D01*
X148000000Y-153720000D01*
G36*
X148440000Y-154330000D02*
G01*
X147560000Y-154330000D01*
X148000000Y-153720000D01*
X148440000Y-154330000D01*
G37*
%TO.C,J8*%
X194170000Y-154180000D02*
X202020000Y-154180000D01*
X194170000Y-161720000D02*
X194170000Y-154180000D01*
X195890000Y-161720000D02*
X194170000Y-161720000D01*
X202020000Y-154180000D02*
X202020000Y-161720000D01*
X202020000Y-161720000D02*
X196490000Y-161720000D01*
X196190000Y-161720000D02*
X196630000Y-162330000D01*
X195750000Y-162330000D01*
X196190000Y-161720000D01*
G36*
X196630000Y-162330000D02*
G01*
X195750000Y-162330000D01*
X196190000Y-161720000D01*
X196630000Y-162330000D01*
G37*
%TO.C,K1*%
D13*
X210717100Y-91157500D02*
X210717100Y-115922500D01*
X210717100Y-115922500D02*
X216482900Y-115922500D01*
X216482900Y-91157500D02*
X210717100Y-91157500D01*
X216482900Y-115922500D02*
X216482900Y-91157500D01*
%TO.C,K3*%
X162767100Y-91277500D02*
X162767100Y-116042500D01*
X162767100Y-116042500D02*
X168532900Y-116042500D01*
X168532900Y-91277500D02*
X162767100Y-91277500D01*
X168532900Y-116042500D02*
X168532900Y-91277500D01*
%TO.C,Q3*%
D11*
X167790000Y-89350000D02*
X171390000Y-89350000D01*
X167751522Y-89338478D02*
G75*
G02*
X169590000Y-84899999I1838478J1838478D01*
G01*
X169590000Y-84900000D02*
G75*
G02*
X171428478Y-89338478I0J-2600000D01*
G01*
%TO.C,K4*%
D13*
X155147100Y-91277500D02*
X155147100Y-116042500D01*
X155147100Y-116042500D02*
X160912900Y-116042500D01*
X160912900Y-91277500D02*
X155147100Y-91277500D01*
X160912900Y-116042500D02*
X160912900Y-91277500D01*
%TO.C,Q1*%
D11*
X215740000Y-89350000D02*
X219340000Y-89350000D01*
X215701522Y-89338478D02*
G75*
G02*
X217540000Y-84899999I1838478J1838478D01*
G01*
X217540000Y-84900000D02*
G75*
G02*
X219378478Y-89338478I0J-2600000D01*
G01*
%TO.C,D1*%
X104590000Y-113264000D02*
X104590000Y-113420000D01*
X104590000Y-115580000D02*
X104590000Y-115736000D01*
X104590000Y-113264484D02*
G75*
G02*
X107821437Y-113420000I1560000J-1235516D01*
G01*
X105109039Y-113420000D02*
G75*
G02*
X107190961Y-113420000I1040961J-1080000D01*
G01*
X107190961Y-115580000D02*
G75*
G02*
X105109039Y-115580000I-1040961J1080000D01*
G01*
X107821437Y-115580000D02*
G75*
G02*
X104590000Y-115735516I-1671437J1080000D01*
G01*
%TO.C,K5*%
D13*
X147527100Y-91157500D02*
X147527100Y-115922500D01*
X147527100Y-115922500D02*
X153292900Y-115922500D01*
X153292900Y-91157500D02*
X147527100Y-91157500D01*
X153292900Y-115922500D02*
X153292900Y-91157500D01*
%TO.C,R1*%
D11*
X201330000Y-74120000D02*
X201660000Y-74120000D01*
X201330000Y-80660000D02*
X201330000Y-74120000D01*
X201660000Y-80660000D02*
X201330000Y-80660000D01*
X203740000Y-80660000D02*
X204070000Y-80660000D01*
X204070000Y-74120000D02*
X203740000Y-74120000D01*
X204070000Y-80660000D02*
X204070000Y-74120000D01*
%TO.C,R14*%
X90420000Y-145130000D02*
X96960000Y-145130000D01*
X90420000Y-145460000D02*
X90420000Y-145130000D01*
X90420000Y-147540000D02*
X90420000Y-147870000D01*
X90420000Y-147870000D02*
X96960000Y-147870000D01*
X96960000Y-145130000D02*
X96960000Y-145460000D01*
X96960000Y-147870000D02*
X96960000Y-147540000D01*
%TO.C,R2*%
X166950000Y-74120000D02*
X166950000Y-80660000D01*
X166950000Y-80660000D02*
X167280000Y-80660000D01*
X167280000Y-74120000D02*
X166950000Y-74120000D01*
X169360000Y-74120000D02*
X169690000Y-74120000D01*
X169690000Y-74120000D02*
X169690000Y-80660000D01*
X169690000Y-80660000D02*
X169360000Y-80660000D01*
%TO.C,R7*%
X136920000Y-74000000D02*
X137540000Y-74000000D01*
X136920000Y-74000000D02*
G75*
G02*
X135080000Y-74000000I-920000J0D01*
G01*
X135080000Y-74000000D02*
G75*
G02*
X136920000Y-74000000I920000J0D01*
G01*
%TO.C,R8*%
X175040000Y-60630000D02*
X181580000Y-60630000D01*
X175040000Y-60960000D02*
X175040000Y-60630000D01*
X175040000Y-63040000D02*
X175040000Y-63370000D01*
X175040000Y-63370000D02*
X181580000Y-63370000D01*
X181580000Y-60630000D02*
X181580000Y-60960000D01*
X181580000Y-63370000D02*
X181580000Y-63040000D01*
%TO.C,R11*%
X90420000Y-121130000D02*
X96960000Y-121130000D01*
X90420000Y-121460000D02*
X90420000Y-121130000D01*
X90420000Y-123540000D02*
X90420000Y-123870000D01*
X90420000Y-123870000D02*
X96960000Y-123870000D01*
X96960000Y-121130000D02*
X96960000Y-121460000D01*
X96960000Y-123870000D02*
X96960000Y-123540000D01*
%TO.C,R4*%
X151710000Y-74120000D02*
X152040000Y-74120000D01*
X151710000Y-80660000D02*
X151710000Y-74120000D01*
X152040000Y-80660000D02*
X151710000Y-80660000D01*
X154120000Y-80660000D02*
X154450000Y-80660000D01*
X154450000Y-74120000D02*
X154120000Y-74120000D01*
X154450000Y-80660000D02*
X154450000Y-74120000D01*
%TO.C,R3*%
X159330000Y-74120000D02*
X159660000Y-74120000D01*
X159330000Y-80660000D02*
X159330000Y-74120000D01*
X159660000Y-80660000D02*
X159330000Y-80660000D01*
X161740000Y-80660000D02*
X162070000Y-80660000D01*
X162070000Y-74120000D02*
X161740000Y-74120000D01*
X162070000Y-80660000D02*
X162070000Y-74120000D01*
%TO.C,R10*%
X90420000Y-113130000D02*
X96960000Y-113130000D01*
X90420000Y-113460000D02*
X90420000Y-113130000D01*
X90420000Y-115540000D02*
X90420000Y-115870000D01*
X90420000Y-115870000D02*
X96960000Y-115870000D01*
X96960000Y-113130000D02*
X96960000Y-113460000D01*
X96960000Y-115870000D02*
X96960000Y-115540000D01*
%TO.C,J12*%
D12*
X207200000Y-57700000D02*
X211000000Y-57700000D01*
X207200000Y-82300000D02*
X207200000Y-57700000D01*
X207200000Y-82300000D02*
X211000000Y-82300000D01*
X216800000Y-57700000D02*
X213000000Y-57700000D01*
X216800000Y-57700000D02*
X216800000Y-82300000D01*
X216800000Y-82300000D02*
X213000000Y-82300000D01*
%TO.C,J1*%
D11*
X206170000Y-154180000D02*
X214020000Y-154180000D01*
X206170000Y-161720000D02*
X206170000Y-154180000D01*
X207890000Y-161720000D02*
X206170000Y-161720000D01*
X214020000Y-154180000D02*
X214020000Y-161720000D01*
X214020000Y-161720000D02*
X208490000Y-161720000D01*
X208190000Y-161720000D02*
X208630000Y-162330000D01*
X207750000Y-162330000D01*
X208190000Y-161720000D01*
G36*
X208630000Y-162330000D02*
G01*
X207750000Y-162330000D01*
X208190000Y-161720000D01*
X208630000Y-162330000D01*
G37*
%TO.C,Q5*%
X152550000Y-89350000D02*
X156150000Y-89350000D01*
X152511522Y-89338478D02*
G75*
G02*
X154350000Y-84899999I1838478J1838478D01*
G01*
X154350000Y-84900000D02*
G75*
G02*
X156188478Y-89338478I0J-2600000D01*
G01*
%TO.C,D4*%
X104590000Y-137264000D02*
X104590000Y-137420000D01*
X104590000Y-139580000D02*
X104590000Y-139736000D01*
X104590000Y-137264484D02*
G75*
G02*
X107821437Y-137420000I1560000J-1235516D01*
G01*
X105109039Y-137420000D02*
G75*
G02*
X107190961Y-137420000I1040961J-1080000D01*
G01*
X107190961Y-139580000D02*
G75*
G02*
X105109039Y-139580000I-1040961J1080000D01*
G01*
X107821437Y-139580000D02*
G75*
G02*
X104590000Y-139735516I-1671437J1080000D01*
G01*
%TO.C,R12*%
X90420000Y-129130000D02*
X96960000Y-129130000D01*
X90420000Y-129460000D02*
X90420000Y-129130000D01*
X90420000Y-131540000D02*
X90420000Y-131870000D01*
X90420000Y-131870000D02*
X96960000Y-131870000D01*
X96960000Y-129130000D02*
X96960000Y-129460000D01*
X96960000Y-131870000D02*
X96960000Y-131540000D01*
%TO.C,D3*%
X104590000Y-129264000D02*
X104590000Y-129420000D01*
X104590000Y-131580000D02*
X104590000Y-131736000D01*
X104590000Y-129264484D02*
G75*
G02*
X107821437Y-129420000I1560000J-1235516D01*
G01*
X105109039Y-129420000D02*
G75*
G02*
X107190961Y-129420000I1040961J-1080000D01*
G01*
X107190961Y-131580000D02*
G75*
G02*
X105109039Y-131580000I-1040961J1080000D01*
G01*
X107821437Y-131580000D02*
G75*
G02*
X104590000Y-131735516I-1671437J1080000D01*
G01*
%TO.C,R6*%
X221130000Y-74120000D02*
X221460000Y-74120000D01*
X221130000Y-80660000D02*
X221130000Y-74120000D01*
X221460000Y-80660000D02*
X221130000Y-80660000D01*
X223540000Y-80660000D02*
X223870000Y-80660000D01*
X223870000Y-74120000D02*
X223540000Y-74120000D01*
X223870000Y-80660000D02*
X223870000Y-74120000D01*
%TO.C,J5*%
X116980000Y-38086400D02*
X137750000Y-38086400D01*
X116980000Y-45626400D02*
X116980000Y-38086400D01*
X138350000Y-38086400D02*
X140070000Y-38086400D01*
X140070000Y-38086400D02*
X140070000Y-45626400D01*
X140070000Y-45626400D02*
X116980000Y-45626400D01*
X138050000Y-38086400D02*
X137610000Y-37476400D01*
X138490000Y-37476400D01*
X138050000Y-38086400D01*
G36*
X138050000Y-38086400D02*
G01*
X137610000Y-37476400D01*
X138490000Y-37476400D01*
X138050000Y-38086400D01*
G37*
%TD*%
M02*
